<?xml version="1.0" encoding="utf-8"?>
<!-- Generator: Adobe Illustrator 22.0.1, SVG Export Plug-In . SVG Version: 6.00 Build 0)  -->
<svg version="1.1" id="Layer_1" xmlns="http://www.w3.org/2000/svg" xmlns:xlink="http://www.w3.org/1999/xlink" x="0px" y="0px"
	 viewBox="0 0 267 273.5" style="enable-background:new 0 0 267 273.5;" xml:space="preserve">
<style type="text/css">
	.st0{fill:#FFFFFF;}
	.st1{fill:none;}
	.st2{opacity:0.7;}
</style>
<g>
	<g>
		<g>
			<path class="st0" d="M55.2,174.7c0.3-0.4,0.5-0.8,0.7-1.1c3-4.7,6-9.3,8.9-14c1.7-2.7,2.6-5.6,3-8.8c0.6-5.5-2.5-10.2-7.7-11.7
				c-2.8-0.8-5.7-0.9-8.5-0.3c-3.4,0.7-5.9,2.6-7.3,5.8c-1.2,2.9-1,6-1,9c3.3,0,6.4,0,9.6,0c0-0.5,0-1,0-1.5
				c0.1-1.7,0.1-3.5,0.3-5.2c0.1-1.3,1-1.9,2.2-1.9s2,0.7,2.2,2c0.1,0.8,0.3,1.7,0,2.4c-0.6,2-1.2,4.1-2.2,5.9
				c-3.7,6.6-7.6,13-11.5,19.5c-0.2,0.3-0.5,0.7-0.5,1.1c-0.1,2,0,4,0,6c7.8,0,15.6,0,23.4,0c0-2.5,0-4.8,0-7.3
				C62.9,174.7,59.2,174.7,55.2,174.7z"/>
		</g>
	</g>
	<g>
		<g>
			<path class="st0" d="M79.9,147c-2.6,11.8-5.1,23.4-7.7,35.1c3.4,0,6.6,0,9.8,0c0.7,0,1-0.2,1.1-1c1.7-8.7,3.4-17.4,5.3-26
				c1.1-4.9,1.5-9.8,1.3-14.8c0-0.3-0.1-0.6-0.1-0.8c-6.8,0-13.6,0-20.3,0c0,2.5,0,5,0,7.5C72.8,147,76.3,147,79.9,147z"/>
		</g>
	</g>
	<g>
		<g>
			<g>
				<path class="st0" d="M243.7,190.2c-0.1-0.3-0.2-0.5-0.1-0.6c0.2-1.7,0.4-3.5,0.5-5.2c0.4-5-0.1-9.9-2.2-14.5
					c-0.1-0.2-0.4-0.4-0.5-0.6c-0.2,0.2-0.4,0.4-0.5,0.7c-2.1,5.5-2.9,11.3-2.5,17.2c0.3,4.5,0.5,9.1-0.5,13.5
					c-0.2,0.8-0.3,1.6-0.5,2.4c0,0.2,0.2,0.5,0.2,0.8c0.2-0.1,0.5-0.2,0.7-0.4c0.8-0.9,1.6-1.8,2.4-2.6c2.6-2.3,5.1-4.5,7.8-6.7
					c5.1-4.3,9-9.4,11.4-15.7c0.3-0.9,0.5-1.8,0.7-2.7c-0.1-0.1-0.2-0.1-0.3-0.2C253.6,179,248.8,184.6,243.7,190.2z"/>
			</g>
		</g>
		<g>
			<g>
				<path class="st0" d="M235.3,190.8c-0.3,0.1-0.5,0.1-0.5,0.2c-1.6,2.8-3.7,5.4-4.8,8.4c-1.5,4.1-2.5,8.4-3.5,12.6
					c-0.9,3.5-2.2,6.6-4.7,9.2c-0.3,0.3-0.3,0.8-0.4,1.2c0.4-0.1,0.9,0,1.3-0.2c4.2-2.2,8.4-4.6,12.7-6.6c6.3-3,12.1-6.6,16.4-12.2
					c0.6-0.8,1.4-1.7,1.6-2.9c-8.2,1.3-14.5,6-21,10.4c0.9-3.3,2-6.5,2.7-9.7C235.8,197.7,235.4,194.3,235.3,190.8z"/>
			</g>
		</g>
		<g>
			<g>
				<path class="st0" d="M241.6,150c-0.1,0-0.2,0-0.3,0c-0.1,1.4-0.3,2.7-0.3,4.1c0,4.6,1.2,8.9,2.6,13.1c1.2,3.5,2.5,7,2.5,10.8
					c0,1.4,0.1,2.7,0.2,4.1c0,0.4,0.4,0.7,0.6,1.1c0.3-0.2,0.6-0.4,0.8-0.7c2.9-4.9,5.7-9.8,8.8-14.6c2.7-4.3,5.1-8.8,5.9-14
					c0.1-0.4,0-0.8,0-1.1c-0.4,0.1-0.8,0.2-1.2,0.4c-4.9,3.2-8.1,7.8-10.4,13c-0.3,0.7-0.7,1.5-1,2.2c-0.1,0-0.2,0-0.3-0.1
					C248.2,161.6,246.5,155.1,241.6,150z"/>
			</g>
		</g>
		<g>
			<g>
				<path class="st0" d="M237.4,130.9c0.3,1.8,0.4,3.3,0.8,4.7c1.2,4.3,2.9,8.4,5.1,12.3c2.4,4,4.9,8,6.2,12.5
					c0.1,0.3,0.5,0.4,0.8,0.6c0.2-0.3,0.5-0.5,0.6-0.8c0.2-1.1,0.4-2.3,0.6-3.4c1.2-5.4,2.4-10.8,3.5-16.2c0.8-4,0.8-8,0.2-12
					c-0.1-0.7-0.3-1.3-0.5-2c-0.1,0-0.2,0-0.4,0c-3.6,6-5,12.6-5.6,19.6c-0.7-1.2-1.2-2.4-1.7-3.7c-1.9-4.4-4.5-8.2-8.3-11.1
					C238.4,131.3,238,131.2,237.4,130.9z"/>
			</g>
		</g>
		<g>
			<g>
				<path class="st0" d="M227.7,114.5c-0.4-0.1-0.8,0.3-0.7,0.7c0.1,0.4,0.3,0.9,0.5,1.1c2.4,4.7,6.2,8.1,10.2,11.4
					c3.2,2.7,6.8,5.1,8.8,9c0.1,0.3,0.7,0.4,1.1,0.5c0.1-0.3,0.2-0.7,0.2-1c0-1.9-0.2-3.7-0.1-5.6c0.3-4.7,0.8-9.3,1.2-14
					c0.2-3.2-0.7-6.3-1.8-9.3c-0.1-0.2-0.3-0.5-0.5-0.5s-0.5,0.2-0.6,0.4c-0.6,1.3-1.3,2.5-1.8,3.8c-1.4,4-1.5,8.1-1.2,12.2
					c0.1,0.7,0,1.4,0,2.3C238.8,120.6,234.1,116.1,227.7,114.5z"/>
			</g>
		</g>
		<g>
			<g>
				<path class="st0" d="M227.5,98.5c-0.1,0.5-0.2,0.6-0.1,0.8c0.1,4.4,1.6,8.4,4.4,11.8c2.2,2.6,4.8,4.9,7.3,7.3
					c0.2,0.2,0.7,0.2,1.2,0.4c-0.6-2.3-1.2-4.3-1.8-6.3c-1.4-5.4-4.2-9.8-8.9-12.9C228.9,99.2,228.2,98.9,227.5,98.5z"/>
			</g>
		</g>
	</g>
	<g>
		<path class="st0" d="M51.8,203.8h-0.6v-11.7h0.6l2.6,8.5c0.1,0.6,0.2,0.9,0.2,1v-9.5h0.6v11.7h-0.6l-2.6-8.4
			c-0.2-0.7-0.2-1-0.3-1.1L51.8,203.8L51.8,203.8z"/>
		<path class="st0" d="M60.1,195.8h0.6v8h-0.5l-0.1-0.5c-0.2,0.4-0.7,0.6-1.3,0.6s-1.1-0.2-1.4-0.6c-0.3-0.4-0.4-0.9-0.4-1.5v-5.9
			h0.6v5.9c0,1,0.4,1.6,1.2,1.6s1.2-0.5,1.2-1.6v-6H60.1z"/>
		<path class="st0" d="M62.5,197.8c0-0.7,0.2-1.2,0.5-1.6c0.3-0.4,0.8-0.6,1.4-0.6c0.6,0,1.1,0.2,1.4,0.6c0.3,0.4,0.5,0.9,0.5,1.6
			v2.2h-3.1v1.7c0,0.5,0.1,0.9,0.3,1.2c0.2,0.2,0.5,0.4,0.9,0.4s0.7-0.1,0.9-0.4c0.2-0.3,0.3-0.7,0.3-1.2v-0.6h0.6v0.6
			c0,0.7-0.2,1.2-0.5,1.6c-0.3,0.4-0.8,0.6-1.4,0.6s-1.1-0.2-1.4-0.6c-0.3-0.4-0.5-0.9-0.5-1.6L62.5,197.8L62.5,197.8z M63.2,199.5
			h2.5v-1.6c0-0.5-0.1-0.9-0.3-1.2c-0.2-0.2-0.5-0.4-0.9-0.4s-0.7,0.1-0.9,0.4c-0.2,0.3-0.3,0.7-0.3,1.2L63.2,199.5L63.2,199.5z"/>
		<path class="st0" d="M67.9,195.8l1.3,6.1l1.3-6.1h0.6l-1.7,8h-0.5l-1.7-8H67.9z"/>
		<path class="st0" d="M73.9,195.7c0.6,0,1.1,0.2,1.4,0.6c0.3,0.4,0.5,0.9,0.5,1.6v3.9c0,0.7-0.2,1.2-0.5,1.6
			c-0.3,0.4-0.8,0.6-1.4,0.6s-1.1-0.2-1.4-0.6c-0.3-0.4-0.5-0.9-0.5-1.6v-3.9c0-0.7,0.2-1.2,0.5-1.6
			C72.9,195.9,73.3,195.7,73.9,195.7z M73,196.6c-0.2,0.3-0.3,0.7-0.3,1.2v3.9c0,0.5,0.1,0.9,0.3,1.2c0.2,0.2,0.5,0.4,0.9,0.4
			s0.7-0.1,0.9-0.4c0.2-0.3,0.3-0.7,0.3-1.2v-3.9c0-0.5-0.1-0.9-0.3-1.2c-0.2-0.2-0.5-0.4-0.9-0.4C73.5,196.3,73.2,196.4,73,196.6z"
			/>
		<path class="st0" d="M77.3,201.3H78v0.4c0,0.6,0.1,1,0.3,1.2c0.2,0.2,0.5,0.3,1,0.3s0.9-0.1,1-0.4c0.1-0.2,0.2-0.6,0.2-1.2
			c0-0.6-0.1-1-0.4-1.2c-0.2-0.2-0.5-0.3-0.9-0.4c-0.6-0.2-1-0.3-1.2-0.6c-0.4-0.4-0.6-0.9-0.6-1.6c0-0.7,0.1-1.1,0.3-1.4
			c0.3-0.5,0.8-0.7,1.6-0.7c0.7,0,1.2,0.2,1.5,0.6c0.2,0.3,0.4,0.8,0.4,1.5v0.4h-0.6v-0.4c0-0.6-0.1-1-0.3-1.2
			c-0.2-0.2-0.5-0.3-1-0.3s-0.9,0.1-1,0.4c-0.1,0.2-0.2,0.6-0.2,1.2c0,0.6,0.1,1,0.4,1.2c0.2,0.2,0.5,0.3,0.9,0.4
			c0.6,0.2,1,0.3,1.2,0.6c0.4,0.4,0.6,0.9,0.6,1.6c0,0.7-0.1,1.1-0.3,1.4c-0.3,0.5-0.8,0.7-1.6,0.7c-0.7,0-1.2-0.2-1.5-0.6
			c-0.2-0.3-0.4-0.8-0.4-1.5L77.3,201.3L77.3,201.3z"/>
		<path class="st0" d="M90.7,195.6c0,1.2-0.4,1.9-1.2,2.2c0.8,0.3,1.2,1,1.2,2.2v3.7h-0.6V200c0-1.3-0.5-1.9-1.4-1.9h-1.4v5.6h-0.6
			V192h2c1.4,0,2,0.8,2,2.5V195.6z M87.3,197.6h1.4c0.9,0,1.4-0.6,1.4-1.9v-1.1c0-1.3-0.5-1.9-1.4-1.9h-1.4V197.6z"/>
		<path class="st0" d="M92.4,197.8c0-0.7,0.2-1.2,0.5-1.6c0.3-0.4,0.8-0.6,1.4-0.6s1.1,0.2,1.4,0.6c0.3,0.4,0.5,0.9,0.5,1.6v2.2H93
			v1.7c0,0.5,0.1,0.9,0.3,1.2c0.2,0.2,0.5,0.4,0.9,0.4s0.7-0.1,0.9-0.4c0.2-0.3,0.3-0.7,0.3-1.2v-0.6H96v0.6c0,0.7-0.2,1.2-0.5,1.6
			c-0.3,0.4-0.8,0.6-1.4,0.6s-1.1-0.2-1.4-0.6c-0.3-0.4-0.5-0.9-0.5-1.6v-3.9H92.4z M93,199.5h2.5v-1.6c0-0.5-0.1-0.9-0.3-1.2
			c-0.2-0.2-0.5-0.4-0.9-0.4s-0.7,0.1-0.9,0.4c-0.2,0.3-0.3,0.7-0.3,1.2L93,199.5L93,199.5z"/>
		<path class="st0" d="M100.4,203.7c-0.2,0.1-0.5,0.1-0.8,0.1c-0.7,0-1.3-0.2-1.6-0.7c-0.2-0.3-0.3-0.8-0.3-1.4
			c0-0.7,0.2-1.2,0.5-1.5c0.2-0.2,0.6-0.4,1.1-0.6c0.6-0.2,0.9-0.3,1.1-0.4c0.3-0.2,0.5-0.6,0.5-1.2v-0.2c0-0.5-0.1-0.9-0.3-1.2
			c-0.2-0.2-0.5-0.4-0.9-0.4c-0.5,0-0.8,0.2-1,0.5c-0.1,0.2-0.2,0.6-0.2,1.1v0.1h-0.6v-0.1c0-0.7,0.1-1.2,0.4-1.5
			c0.3-0.4,0.8-0.6,1.4-0.6s1.1,0.2,1.4,0.6c0.3,0.4,0.5,0.9,0.5,1.6v5.9H101l-0.1-0.5C100.8,203.5,100.6,203.6,100.4,203.7z
			 M100.9,199.5c-0.3,0.3-0.8,0.5-1.6,0.7c-0.3,0.1-0.5,0.3-0.6,0.5c-0.2,0.2-0.3,0.6-0.3,1c0,0.6,0.1,0.9,0.2,1.2
			c0.2,0.3,0.5,0.4,1,0.4s0.8-0.1,1-0.3s0.3-0.6,0.3-1.2V199.5z"/>
		<path class="st0" d="M103.9,203.8h-0.6v-11.7h0.6V203.8z"/>
		<path class="st0" d="M106.4,193.5h-0.6v-0.6h0.6V193.5z M106.3,203.8h-0.6v-8h0.6V203.8z"/>
		<path class="st0" d="M107.7,196.3v-0.6h3.7v0.3l-3,7.1h3v0.6h-3.7v-0.3l3-7.1H107.7z"/>
		<path class="st0" d="M115.3,203.7c-0.2,0.1-0.5,0.1-0.8,0.1c-0.7,0-1.3-0.2-1.6-0.7c-0.2-0.3-0.3-0.8-0.3-1.4
			c0-0.7,0.2-1.2,0.5-1.5c0.2-0.2,0.6-0.4,1.1-0.6c0.6-0.2,0.9-0.3,1.1-0.4c0.3-0.2,0.5-0.6,0.5-1.2v-0.2c0-0.5-0.1-0.9-0.3-1.2
			c-0.2-0.2-0.5-0.4-0.9-0.4c-0.5,0-0.8,0.2-1,0.5c-0.1,0.2-0.2,0.6-0.2,1.1v0.1h-0.6v-0.1c0-0.7,0.1-1.2,0.4-1.5
			c0.3-0.4,0.8-0.6,1.4-0.6s1.1,0.2,1.4,0.6c0.3,0.4,0.5,0.9,0.5,1.6v5.9H116l-0.1-0.5C115.7,203.5,115.5,203.6,115.3,203.7z
			 M115.8,199.5c-0.3,0.3-0.8,0.5-1.6,0.7c-0.3,0.1-0.5,0.3-0.6,0.5c-0.2,0.2-0.3,0.6-0.3,1c0,0.6,0.1,0.9,0.2,1.2
			c0.2,0.3,0.5,0.4,1,0.4s0.8-0.1,1-0.3s0.3-0.6,0.3-1.2V199.5z"/>
		<path class="st0" d="M121.3,196.3v-4.2h0.6v11.7h-0.5l-0.1-0.5c-0.2,0.4-0.6,0.6-1.3,0.6c-0.6,0-1.1-0.2-1.4-0.6
			c-0.3-0.4-0.4-0.9-0.4-1.5v-3.9c0-0.7,0.1-1.2,0.4-1.5c0.3-0.4,0.8-0.6,1.4-0.6C120.7,195.7,121.1,195.9,121.3,196.3z
			 M118.8,197.8v3.9c0,1,0.4,1.6,1.2,1.6c0.8,0,1.2-0.5,1.2-1.6v-3.9c0-1-0.4-1.6-1.2-1.6C119.2,196.3,118.8,196.8,118.8,197.8z"/>
		<path class="st0" d="M125.6,195.7c0.6,0,1.1,0.2,1.4,0.6c0.3,0.4,0.5,0.9,0.5,1.6v3.9c0,0.7-0.2,1.2-0.5,1.6
			c-0.3,0.4-0.8,0.6-1.4,0.6s-1.1-0.2-1.4-0.6c-0.3-0.4-0.5-0.9-0.5-1.6v-3.9c0-0.7,0.2-1.2,0.5-1.6S125,195.7,125.6,195.7z
			 M124.7,196.6c-0.2,0.3-0.3,0.7-0.3,1.2v3.9c0,0.5,0.1,0.9,0.3,1.2c0.2,0.2,0.5,0.4,0.9,0.4s0.7-0.1,0.9-0.4
			c0.2-0.3,0.3-0.7,0.3-1.2v-3.9c0-0.5-0.1-0.9-0.3-1.2c-0.2-0.2-0.5-0.4-0.9-0.4C125.2,196.3,124.9,196.4,124.7,196.6z"/>
		<path class="st0" d="M129.9,203.8h-0.6v-8h0.5l0.1,0.5c0.2-0.4,0.7-0.6,1.3-0.6s1.1,0.2,1.4,0.6c0.3,0.4,0.4,0.9,0.4,1.5v2.2h-0.6
			v-2.2c0-1.1-0.4-1.6-1.2-1.6s-1.2,0.5-1.2,1.6L129.9,203.8L129.9,203.8z"/>
		<path class="st0" d="M134.5,197.8c0-0.7,0.2-1.2,0.5-1.6c0.3-0.4,0.8-0.6,1.4-0.6c0.6,0,1.1,0.2,1.4,0.6c0.3,0.4,0.5,0.9,0.5,1.6
			v2.2h-3.1v1.7c0,0.5,0.1,0.9,0.3,1.2c0.2,0.2,0.5,0.4,0.9,0.4s0.7-0.1,0.9-0.4c0.2-0.3,0.3-0.7,0.3-1.2v-0.6h0.6v0.6
			c0,0.7-0.2,1.2-0.5,1.6c-0.3,0.4-0.8,0.6-1.4,0.6c-0.6,0-1.1-0.2-1.4-0.6c-0.3-0.4-0.5-0.9-0.5-1.6v-3.9H134.5z M135.1,199.5h2.5
			v-1.6c0-0.5-0.1-0.9-0.3-1.2c-0.2-0.2-0.5-0.4-0.9-0.4s-0.7,0.1-0.9,0.4c-0.2,0.3-0.3,0.7-0.3,1.2v1.6H135.1z"/>
		<path class="st0" d="M139.7,201.3h0.6v0.4c0,0.6,0.1,1,0.3,1.2s0.5,0.3,1,0.3s0.9-0.1,1-0.4c0.1-0.2,0.2-0.6,0.2-1.2
			c0-0.6-0.1-1-0.4-1.2c-0.2-0.2-0.5-0.3-0.9-0.4c-0.6-0.2-1-0.3-1.2-0.6c-0.4-0.4-0.6-0.9-0.6-1.6c0-0.7,0.1-1.1,0.3-1.4
			c0.3-0.5,0.8-0.7,1.6-0.7c0.7,0,1.2,0.2,1.5,0.6c0.2,0.3,0.4,0.8,0.4,1.5v0.4h-0.6v-0.4c0-0.6-0.1-1-0.3-1.2s-0.5-0.3-1-0.3
			s-0.9,0.1-1,0.4c-0.1,0.2-0.2,0.6-0.2,1.2c0,0.6,0.1,1,0.4,1.2c0.2,0.2,0.5,0.3,0.9,0.4c0.6,0.2,1,0.3,1.2,0.6
			c0.4,0.4,0.6,0.9,0.6,1.6c0,0.7-0.1,1.1-0.3,1.4c-0.3,0.5-0.8,0.7-1.6,0.7c-0.7,0-1.2-0.2-1.5-0.6c-0.2-0.3-0.4-0.8-0.4-1.5V201.3
			z"/>
		<path class="st0" d="M149.7,203.8h-0.6v-11.7h0.6V203.8z"/>
		<path class="st0" d="M152.2,203.8h-0.6v-8h0.5l0.1,0.4c0.3-0.3,0.7-0.4,1.3-0.4s1.1,0.2,1.4,0.6c0.3,0.4,0.5,0.9,0.5,1.6v5.9h-0.6
			V198c0-0.5-0.1-0.9-0.3-1.2c-0.2-0.2-0.5-0.4-0.9-0.4s-0.7,0.1-0.9,0.4c-0.2,0.3-0.3,0.7-0.3,1.2v5.8H152.2z"/>
		<path class="st0" d="M156.3,196.3v-0.6h1.1V192h0.6v3.7h1.1v0.6H158v7.4h-0.6v-7.4H156.3z"/>
		<path class="st0" d="M160.1,197.8c0-0.7,0.2-1.2,0.5-1.6c0.3-0.4,0.8-0.6,1.4-0.6c0.6,0,1.1,0.2,1.4,0.6c0.3,0.4,0.5,0.9,0.5,1.6
			v2.2h-3.1v1.7c0,0.5,0.1,0.9,0.3,1.2c0.2,0.2,0.5,0.4,0.9,0.4s0.7-0.1,0.9-0.4c0.2-0.3,0.3-0.7,0.3-1.2v-0.6h0.6v0.6
			c0,0.7-0.2,1.2-0.5,1.6c-0.3,0.4-0.8,0.6-1.4,0.6c-0.6,0-1.1-0.2-1.4-0.6c-0.3-0.4-0.5-0.9-0.5-1.6v-3.9H160.1z M160.8,199.5h2.5
			v-1.6c0-0.5-0.1-0.9-0.3-1.2c-0.2-0.2-0.5-0.4-0.9-0.4s-0.7,0.1-0.9,0.4c-0.2,0.3-0.3,0.7-0.3,1.2v1.6H160.8z"/>
		<path class="st0" d="M166.3,203.8h-0.6v-8h0.5l0.1,0.5c0.2-0.4,0.7-0.6,1.3-0.6s1.1,0.2,1.4,0.6c0.3,0.4,0.4,0.9,0.4,1.5v2.2h-0.6
			v-2.2c0-1.1-0.4-1.6-1.2-1.6s-1.2,0.5-1.2,1.6L166.3,203.8L166.3,203.8z"/>
		<path class="st0" d="M171.5,203.8h-0.6v-8h0.5l0.1,0.4c0.3-0.3,0.7-0.4,1.3-0.4s1.1,0.2,1.4,0.6c0.3,0.4,0.5,0.9,0.5,1.6v5.9H174
			V198c0-0.5-0.1-0.9-0.3-1.2c-0.2-0.2-0.5-0.4-0.9-0.4s-0.7,0.1-0.9,0.4c-0.2,0.3-0.3,0.7-0.3,1.2v5.8H171.5z"/>
		<path class="st0" d="M178.9,203.7c-0.2,0.1-0.5,0.1-0.8,0.1c-0.7,0-1.3-0.2-1.6-0.7c-0.2-0.3-0.3-0.8-0.3-1.4
			c0-0.7,0.2-1.2,0.5-1.5c0.2-0.2,0.6-0.4,1.1-0.6c0.5-0.2,0.9-0.3,1.1-0.4c0.3-0.2,0.5-0.6,0.5-1.2v-0.2c0-0.5-0.1-0.9-0.3-1.2
			c-0.2-0.2-0.5-0.4-0.9-0.4c-0.5,0-0.8,0.2-1,0.5c-0.1,0.2-0.2,0.6-0.2,1.1v0.1h-0.6v-0.1c0-0.7,0.1-1.2,0.4-1.5
			c0.3-0.4,0.8-0.6,1.4-0.6c0.6,0,1.1,0.2,1.4,0.6c0.3,0.4,0.5,0.9,0.5,1.6v5.9h-0.5l-0.1-0.5C179.2,203.5,179,203.6,178.9,203.7z
			 M179.3,199.5c-0.3,0.3-0.8,0.5-1.6,0.7c-0.3,0.1-0.5,0.3-0.6,0.5c-0.2,0.2-0.3,0.6-0.3,1c0,0.6,0.1,0.9,0.2,1.2
			c0.2,0.3,0.5,0.4,1,0.4s0.8-0.1,1-0.3s0.3-0.6,0.3-1.2L179.3,199.5L179.3,199.5z"/>
		<path class="st0" d="M184.9,200.7h0.6v1c0,0.7-0.2,1.2-0.5,1.6c-0.3,0.4-0.8,0.6-1.4,0.6c-0.6,0-1.1-0.2-1.4-0.6
			c-0.3-0.4-0.5-0.9-0.5-1.6v-3.9c0-0.7,0.2-1.2,0.5-1.6c0.3-0.4,0.8-0.6,1.4-0.6c0.6,0,1.1,0.2,1.4,0.6c0.3,0.4,0.5,0.9,0.5,1.6v1
			h-0.6v-1c0-0.5-0.1-0.9-0.3-1.2c-0.2-0.2-0.5-0.4-0.9-0.4s-0.7,0.1-0.9,0.4c-0.2,0.3-0.3,0.7-0.3,1.2v3.9c0,0.5,0.1,0.9,0.3,1.2
			c0.2,0.2,0.5,0.4,0.9,0.4s0.7-0.1,0.9-0.4c0.2-0.3,0.3-0.7,0.3-1.2V200.7z"/>
		<path class="st0" d="M187.9,193.5h-0.6v-0.6h0.6V193.5z M187.9,203.8h-0.6v-8h0.6V203.8z"/>
		<path class="st0" d="M191.6,195.7c0.6,0,1.1,0.2,1.4,0.6c0.3,0.4,0.5,0.9,0.5,1.6v3.9c0,0.7-0.2,1.2-0.5,1.6
			c-0.3,0.4-0.8,0.6-1.4,0.6c-0.6,0-1.1-0.2-1.4-0.6c-0.3-0.4-0.5-0.9-0.5-1.6v-3.9c0-0.7,0.2-1.2,0.5-1.6
			C190.5,195.9,190.9,195.7,191.6,195.7z M190.6,196.6c-0.2,0.3-0.3,0.7-0.3,1.2v3.9c0,0.5,0.1,0.9,0.3,1.2c0.2,0.2,0.5,0.4,0.9,0.4
			s0.7-0.1,0.9-0.4c0.2-0.3,0.3-0.7,0.3-1.2v-3.9c0-0.5-0.1-0.9-0.3-1.2c-0.2-0.2-0.5-0.4-0.9-0.4S190.8,196.4,190.6,196.6z"/>
		<path class="st0" d="M195.8,203.8h-0.6v-8h0.5l0.1,0.4c0.3-0.3,0.7-0.4,1.3-0.4s1.1,0.2,1.4,0.6c0.3,0.4,0.5,0.9,0.5,1.6v5.9h-0.6
			V198c0-0.5-0.1-0.9-0.3-1.2c-0.2-0.2-0.5-0.4-0.9-0.4s-0.7,0.1-0.9,0.4c-0.2,0.3-0.3,0.7-0.3,1.2v5.8H195.8z"/>
		<path class="st0" d="M203.2,203.7c-0.2,0.1-0.5,0.1-0.8,0.1c-0.7,0-1.3-0.2-1.6-0.7c-0.2-0.3-0.3-0.8-0.3-1.4
			c0-0.7,0.2-1.2,0.5-1.5c0.2-0.2,0.6-0.4,1.1-0.6c0.5-0.2,0.9-0.3,1.1-0.4c0.3-0.2,0.5-0.6,0.5-1.2v-0.2c0-0.5-0.1-0.9-0.3-1.2
			c-0.2-0.2-0.5-0.4-0.9-0.4c-0.5,0-0.8,0.2-1,0.5c-0.1,0.2-0.2,0.6-0.2,1.1v0.1h-0.6v-0.1c0-0.7,0.1-1.2,0.4-1.5
			c0.3-0.4,0.8-0.6,1.4-0.6c0.6,0,1.1,0.2,1.4,0.6c0.3,0.4,0.5,0.9,0.5,1.6v5.9h-0.5l-0.1-0.5C203.5,203.5,203.4,203.6,203.2,203.7z
			 M203.7,199.5c-0.3,0.3-0.8,0.5-1.6,0.7c-0.3,0.1-0.5,0.3-0.6,0.5c-0.2,0.2-0.3,0.6-0.3,1c0,0.6,0.1,0.9,0.2,1.2
			c0.2,0.3,0.5,0.4,1,0.4s0.8-0.1,1-0.3s0.3-0.6,0.3-1.2L203.7,199.5L203.7,199.5z"/>
		<path class="st0" d="M206.7,203.8h-0.6v-11.7h0.6V203.8z"/>
		<path class="st0" d="M208.5,197.8c0-0.7,0.2-1.2,0.5-1.6c0.3-0.4,0.8-0.6,1.4-0.6c0.6,0,1.1,0.2,1.4,0.6c0.3,0.4,0.5,0.9,0.5,1.6
			v2.2h-3.1v1.7c0,0.5,0.1,0.9,0.3,1.2c0.2,0.2,0.5,0.4,0.9,0.4s0.7-0.1,0.9-0.4c0.2-0.3,0.3-0.7,0.3-1.2v-0.6h0.6v0.6
			c0,0.7-0.2,1.2-0.5,1.6c-0.3,0.4-0.8,0.6-1.4,0.6c-0.6,0-1.1-0.2-1.4-0.6c-0.3-0.4-0.5-0.9-0.5-1.6v-3.9H208.5z M209.1,199.5h2.5
			v-1.6c0-0.5-0.1-0.9-0.3-1.2c-0.2-0.2-0.5-0.4-0.9-0.4s-0.7,0.1-0.9,0.4c-0.2,0.3-0.3,0.7-0.3,1.2v1.6H209.1z"/>
		<path class="st0" d="M213.8,201.3h0.6v0.4c0,0.6,0.1,1,0.3,1.2s0.5,0.3,1,0.3s0.9-0.1,1-0.4c0.1-0.2,0.2-0.6,0.2-1.2
			c0-0.6-0.1-1-0.4-1.2c-0.2-0.2-0.5-0.3-0.9-0.4c-0.6-0.2-1-0.3-1.2-0.6c-0.4-0.4-0.6-0.9-0.6-1.6c0-0.7,0.1-1.1,0.3-1.4
			c0.3-0.5,0.8-0.7,1.6-0.7c0.7,0,1.2,0.2,1.5,0.6c0.2,0.3,0.4,0.8,0.4,1.5v0.4H217v-0.4c0-0.6-0.1-1-0.3-1.2s-0.5-0.3-1-0.3
			s-0.9,0.1-1,0.4c-0.1,0.2-0.2,0.6-0.2,1.2c0,0.6,0.1,1,0.4,1.2c0.2,0.2,0.5,0.3,0.9,0.4c0.6,0.2,1,0.3,1.2,0.6
			c0.4,0.4,0.6,0.9,0.6,1.6c0,0.7-0.1,1.1-0.3,1.4c-0.3,0.5-0.8,0.7-1.6,0.7c-0.7,0-1.2-0.2-1.5-0.6c-0.2-0.3-0.4-0.8-0.4-1.5V201.3
			z"/>
	</g>
	<g>
		<path class="st0" d="M125.4,140.9h9.7v4.4h-4v4.2h3.5v4.2h-3.5v9.3h-5.7C125.4,163,125.4,140.9,125.4,140.9z"/>
		<path class="st0" d="M149.9,150.6h-5.7v-3.8c0-1.1-0.1-1.8-0.2-2.1c-0.1-0.3-0.4-0.4-0.8-0.4c-0.6,0-0.9,0.3-1.1,1
			c0,0.2,0,0.7,0,1.7v10.3c0,0.9,0,1.5,0.1,1.6c0.1,0.6,0.5,1,1,1s0.9-0.4,1-1.1c0-0.2,0-0.7,0-1.7v-2.8h5.7v0.9
			c0,2-0.1,3.4-0.3,4.1c-0.3,1.4-1.1,2.4-2.3,3.2c-1.1,0.7-2.5,1.1-4.1,1.1c-1.7,0-3-0.3-4.2-0.9c-1.2-0.7-2-1.7-2.4-3.2
			c-0.2-0.9-0.3-2.2-0.3-4.2v-6.5c0-1.5,0-2.6,0.1-3.1c0.1-1.1,0.5-2.1,1-2.8c1.2-1.6,3-2.4,5.6-2.4c1.4,0,2.7,0.2,3.8,0.8
			c1.3,0.6,2.2,1.5,2.6,2.7c0.3,1,0.5,2.5,0.5,4.6L149.9,150.6L149.9,150.6z"/>
		<path class="st0" d="M169.7,140.9V163h-5v-14.9l-2,14.9h-3.6l-2.1-14.6V163h-5v-22.1h7.4c0.2,1,0.4,2.5,0.7,4.7l0.8,5.6l1.3-10.3
			H169.7z"/>
		<path class="st0" d="M178.6,152.1v3.8h-7.2v-3.8H178.6z"/>
		<path class="st0" d="M180.2,140.9h5.8c2.8,0,4.6,0.5,5.5,1.4c0.5,0.5,0.8,1.3,1,2.3c0.1,0.5,0.1,1.4,0.1,2.5v1.9
			c0,1.2-0.1,2.1-0.3,2.7c-0.3,0.9-0.9,1.5-1.8,1.9c-0.8,0.3-1.8,0.5-3,0.5H186v8.9h-5.7v-22.1H180.2z M185.9,144.7v5.6
			c0.2,0,0.3,0,0.4,0c0.6,0,1-0.2,1.2-0.6c0.1-0.3,0.2-0.7,0.2-1.4v-1.8c0-0.7-0.1-1.2-0.3-1.5C187.2,144.9,186.7,144.7,185.9,144.7
			z"/>
		<path class="st0" d="M207,140.9V163h-5l-3-10v10h-4.8v-22.1h4.8l3.2,9.9v-9.9H207z"/>
		<path class="st0" d="M209.4,140.9h4.1c2.4,0,3.8,0,4.2,0.1c1.7,0.2,2.9,0.8,3.6,1.8c0.6,0.9,0.9,2.2,0.9,4.1
			c0,1.5-0.2,2.6-0.5,3.2c-0.4,0.8-1.3,1.2-2.7,1.4c1.7,0.4,2.7,1.2,3,2.4c0.1,0.4,0.2,1.5,0.2,3.3v5.8h-5.3v-7.3
			c0-1.2-0.1-1.9-0.3-2.2s-0.7-0.4-1.5-0.4v10h-5.7V140.9z M215.1,144.7v4.9c0.8,0,1.3-0.1,1.5-0.4c0.2-0.2,0.3-0.8,0.3-1.6v-1.2
			c0-0.7-0.1-1.1-0.4-1.4C216.2,144.8,215.8,144.7,215.1,144.7z"/>
	</g>
	<g>
		<path class="st1" d="M179.4,175.2c-0.1,0-0.2-0.1-0.4-0.1v5.6c0.3,0,0.5-0.1,0.6-0.3c0-0.1,0-0.2,0-0.9v-3.9
			C179.6,175.4,179.5,175.3,179.4,175.2z"/>
		<path class="st1" d="M205.2,175.2c-0.1,0-0.2-0.1-0.4-0.1v5.6c0.3,0,0.5-0.1,0.6-0.3c0-0.1,0-0.2,0-0.9v-3.9
			C205.4,175.4,205.3,175.3,205.2,175.2z"/>
		<path class="st1" d="M220.3,175.2c-0.1,0-0.2-0.1-0.4-0.1v5.6c0.3,0,0.5-0.1,0.6-0.3c0-0.1,0-0.2,0-0.9v-3.9
			C220.4,175.4,220.4,175.3,220.3,175.2z"/>
		<path class="st1" d="M210.8,175.2v1.8c0.3,0,0.4-0.1,0.5-0.1c0-0.1,0.1-0.2,0.1-0.6v-0.5c0-0.2,0-0.4-0.1-0.5
			C211.2,175.2,211.1,175.2,210.8,175.2z"/>
		<path class="st1" d="M198.9,179.1h0.7c-0.1-0.8-0.2-1.9-0.3-3.2C199.1,177.3,199,178.4,198.9,179.1z"/>
		<path class="st1" d="M145.4,175.2c-0.1,0-0.2-0.1-0.4-0.1v5.6c0.3,0,0.5-0.1,0.6-0.3c0-0.1,0-0.2,0-0.9v-3.9
			C145.6,175.4,145.5,175.3,145.4,175.2z"/>
		<path class="st1" d="M133.4,179.1h0.7c-0.1-0.8-0.2-1.9-0.3-3.2C133.6,177.3,133.5,178.4,133.4,179.1z"/>
		<polygon class="st0" points="107,177 105.6,177 105.6,175.3 107.2,175.3 107.2,173.7 103.5,173.7 103.5,182.2 105.6,182.2 
			105.6,178.6 107,178.6 		"/>
		<polygon class="st0" points="110,178.6 111.4,178.6 111.4,177 110,177 110,175.3 111.4,175.3 111.4,173.7 107.8,173.7 
			107.8,182.2 111.6,182.2 111.6,180.6 110,180.6 		"/>
		<path class="st0" d="M114.9,176.8c-0.4-0.2-0.6-0.4-0.7-0.5c-0.1-0.2-0.1-0.4-0.1-0.7s0.1-0.5,0.2-0.6s0.2-0.1,0.3-0.1
			c0.2,0,0.3,0.1,0.4,0.3c0,0.1,0,0.2,0,0.5v0.6h2V176c0-0.7-0.1-1.2-0.2-1.4c-0.2-0.3-0.5-0.6-1-0.8c-0.4-0.1-0.8-0.2-1.3-0.2l0,0
			c-0.5,0-1,0.1-1.3,0.3c-0.4,0.2-0.7,0.5-0.9,0.9c-0.1,0.3-0.2,0.7-0.2,1.3c0,0.5,0.1,0.8,0.2,1.1s0.3,0.6,0.6,0.9
			c0.1,0.1,0.4,0.3,0.9,0.6c0.6,0.4,0.9,0.6,1,0.7c0.2,0.2,0.3,0.6,0.3,1.1c0,0.2,0,0.4-0.1,0.5s-0.2,0.2-0.4,0.2
			c-0.2,0-0.3-0.1-0.4-0.3c0-0.1,0-0.3,0-0.5v-1h-2v0.5c0,0.6,0.1,1.1,0.2,1.5s0.5,0.7,1,0.9c0.4,0.2,0.9,0.3,1.4,0.3s1-0.1,1.4-0.3
			s0.7-0.4,0.8-0.7c0.1-0.3,0.2-0.7,0.2-1.3c0-0.9-0.2-1.6-0.5-2C116.4,177.8,115.8,177.3,114.9,176.8z"/>
		<polygon class="st0" points="118.9,182.2 121.1,182.2 121.1,175.3 122.4,175.3 122.4,173.7 117.6,173.7 117.6,175.3 118.9,175.3 
					"/>
		<rect x="123" y="173.7" class="st0" width="2.2" height="8.5"/>
		<path class="st0" d="M128.6,179.7L128.6,179.7c-0.2-1.7-0.4-3.7-0.7-6h-2.3l1.3,8.5h3.3l1.1-8.5H129l-0.2,1.6
			C128.8,176.7,128.7,178.2,128.6,179.7z"/>
		<path class="st0" d="M132.1,173.7l-1.1,8.5h2.2l0.1-1.5h0.9l0,0l0.1,1.5h2.2l-1.3-8.5H132.1z M133.3,179.2L133.3,179.2
			c0.1-0.9,0.2-2.1,0.4-3.7l0.1-0.4v0.4c0.1,1.5,0.2,2.7,0.3,3.6l0,0L133.3,179.2L133.3,179.2z"/>
		<polygon class="st0" points="139.2,173.7 137,173.7 137,182.2 140.6,182.2 140.6,180.6 139.2,180.6 		"/>
		<path class="st0" d="M147.4,174.3c-0.3-0.3-0.7-0.5-1.4-0.6c-0.3,0-0.8,0-1.6,0h-1.6v8.5h2.8c0.5,0,0.9,0,1.2-0.1
			c0.5-0.1,0.9-0.4,1-0.9c0.1-0.3,0.1-0.8,0.1-1.5v-3c0-0.9,0-1.2,0-1.3C147.8,175,147.6,174.6,147.4,174.3z M145.6,180.4
			c-0.1,0.3-0.3,0.4-0.7,0.4l0,0V175l0,0c0.3,0,0.4,0,0.5,0.1s0.2,0.2,0.2,0.5v3.9C145.7,180.1,145.7,180.4,145.6,180.4z"/>
		<polygon class="st0" points="150.9,178.6 152.3,178.6 152.3,177 150.9,177 150.9,175.3 152.4,175.3 152.4,173.7 148.7,173.7 
			148.7,182.2 152.5,182.2 152.5,180.6 150.9,180.6 		"/>
		<path class="st0" d="M159.1,173.8c-0.4-0.2-0.9-0.3-1.4-0.3l0,0c-1,0-1.7,0.3-2.1,0.9c-0.2,0.3-0.3,0.6-0.4,1.1c0,0.2,0,0.6,0,1.2
			v2.5c0,0.7,0,1.3,0.1,1.6c0.1,0.6,0.4,1,0.9,1.2c0.4,0.2,1,0.4,1.6,0.4l0,0c0.6,0,1.1-0.1,1.6-0.4c0.5-0.3,0.8-0.7,0.9-1.2
			c0.1-0.3,0.1-0.8,0.1-1.6v-0.3h-2.2v1c0,0.4,0,0.6,0,0.7c0,0.3-0.2,0.5-0.4,0.5s-0.4-0.1-0.4-0.4c0-0.1,0-0.3,0-0.6v-4
			c0-0.4,0-0.6,0-0.7c0.1-0.3,0.2-0.4,0.4-0.4l0,0c0.2,0,0.3,0.1,0.4,0.2c0.1,0.1,0.1,0.4,0.1,0.8v1.5h2.2v-0.8
			c0-0.8-0.1-1.4-0.2-1.8C160,174.4,159.7,174,159.1,173.8z"/>
		<rect x="161.2" y="173.7" class="st0" width="2.2" height="8.5"/>
		<polygon class="st0" points="164.4,173.7 164.4,182.2 166.2,182.2 166.2,178.1 167.4,182.2 169.3,182.2 169.3,173.7 167.5,173.7 
			167.5,177.8 166.2,173.7 		"/>
		<polygon class="st0" points="172.4,178.6 173.8,178.6 173.8,177 172.4,177 172.4,175.3 173.9,175.3 173.9,173.7 170.3,173.7 
			170.3,182.2 174.1,182.2 174.1,180.6 172.4,180.6 		"/>
		<path class="st0" d="M181.4,174.3c-0.3-0.3-0.7-0.5-1.4-0.6c-0.3,0-0.8,0-1.6,0h-1.6v8.5h2.8c0.5,0,0.9,0,1.2-0.1
			c0.5-0.1,0.9-0.4,1-0.9c0.1-0.3,0.1-0.8,0.1-1.5v-3c0-0.9,0-1.2,0-1.3C181.8,175,181.6,174.6,181.4,174.3z M179.6,180.4
			c-0.1,0.3-0.3,0.4-0.7,0.4l0,0V175l0,0c0.3,0,0.4,0,0.5,0.1s0.2,0.2,0.2,0.5v3.9C179.7,180.1,179.7,180.4,179.6,180.4z"/>
		<polygon class="st0" points="184.9,178.6 186.3,178.6 186.3,177 184.9,177 184.9,175.3 186.4,175.3 186.4,173.7 182.8,173.7 
			182.8,182.2 186.6,182.2 186.6,180.6 184.9,180.6 		"/>
		<path class="st0" d="M192,173.7h-2.8v8.5h1.9v-5.6h0.1l0.8,5.7h1.3l0.8-5.8h0.1v5.8h1.9v-8.5h-2.8l-0.5,4.3l-0.4-2.5
			C192.2,174.7,192.1,174.1,192,173.7z"/>
		<path class="st0" d="M197.6,173.7l-1.1,8.5h2.2l0.1-1.5h0.9l0,0l0.1,1.5h2.2l-1.3-8.5H197.6z M198.9,179.2L198.9,179.2
			c0.1-0.9,0.2-2.1,0.4-3.7l0.1-0.4v0.4c0.1,1.5,0.2,2.7,0.3,3.6l0,0L198.9,179.2L198.9,179.2z"/>
		<path class="st0" d="M207.2,174.3c-0.3-0.3-0.7-0.5-1.4-0.6c-0.3,0-0.8,0-1.6,0h-1.6v8.5h2.8c0.5,0,0.9,0,1.2-0.1
			c0.5-0.1,0.9-0.4,1-0.9c0.1-0.3,0.1-0.8,0.1-1.5v-3c0-0.9,0-1.2,0-1.3C207.6,175,207.5,174.6,207.2,174.3z M205.5,180.4
			c-0.1,0.3-0.3,0.4-0.7,0.4l0,0V175l0,0c0.3,0,0.4,0,0.5,0.1s0.2,0.2,0.2,0.5v3.9C205.5,180.1,205.5,180.4,205.5,180.4z"/>
		<path class="st0" d="M213.2,174.4c-0.3-0.4-0.7-0.6-1.4-0.7c-0.2,0-0.7,0-1.7,0h-1.5v8.5h2.2v-3.9l0,0c0.3,0,0.5,0.1,0.6,0.2
			c0.1,0.1,0.1,0.4,0.1,0.9v2.8h2V180c0-0.7,0-1.1-0.1-1.3c-0.1-0.5-0.5-0.8-1.1-0.9l-0.2-0.1h0.2c0.5-0.1,0.9-0.2,1-0.5
			c0.1-0.2,0.2-0.6,0.2-1.2C213.5,175.3,213.4,174.7,213.2,174.4z M211.5,176.3c0,0.3,0,0.5-0.1,0.6s-0.3,0.2-0.6,0.2l0,0v-2l0,0
			c0.3,0,0.5,0,0.6,0.1s0.2,0.3,0.2,0.6L211.5,176.3L211.5,176.3z"/>
		<rect x="214.5" y="173.7" class="st0" width="2.2" height="8.5"/>
		<path class="st0" d="M222.3,174.3c-0.3-0.3-0.7-0.5-1.4-0.6c-0.3,0-0.8,0-1.6,0h-1.6v8.5h2.8c0.5,0,0.9,0,1.2-0.1
			c0.5-0.1,0.9-0.4,1-0.9c0.1-0.3,0.1-0.8,0.1-1.5v-3c0-0.9,0-1.2,0-1.3C222.6,175,222.5,174.6,222.3,174.3z M220.5,180.4
			c-0.1,0.3-0.3,0.4-0.7,0.4l0,0V175l0,0c0.3,0,0.4,0,0.5,0.1s0.2,0.2,0.2,0.5v3.9C220.6,180.1,220.5,180.4,220.5,180.4z"/>
	</g>
	<g class="st2">
		<path class="st0" d="M113.1,139.5h5.2c0,0,1.2,7.9,1.2,13.7s-0.4,12.5-0.4,12.5h-6c0,0-0.5-7.7-0.5-14.2S113.1,139.5,113.1,139.5z
			"/>
	</g>
	<g>
		<g>
			<path class="st0" d="M99.6,139.1c-1.8,0-4,0-5.7,0c0,0-0.2,0.3-0.2,0.6c-0.4,3.9-0.9,7.8-0.9,11.8c-0.1,10,0.1,20,0.2,30
				c0,0.3,0,0.6,0.1,1c2.7-0.1,5.3-0.2,8.2-0.4C100.4,167.7,101.7,153.5,99.6,139.1z M94.4,160.6c0-0.3,0.3-0.6,0.6-0.6h3.7
				c0.3,0,0.6,0.3,0.6,0.6v2.4c0,0.3-0.3,0.6-0.6,0.6H95c-0.3,0-0.6-0.3-0.6-0.6V160.6z M94.4,165.8c0-0.3,0.3-0.6,0.6-0.6h3.7
				c0.3,0,0.6,0.3,0.6,0.6v2.4c0,0.3-0.3,0.6-0.6,0.6H95c-0.3,0-0.6-0.3-0.6-0.6V165.8z M94.5,171.2c0-0.3,0.3-0.6,0.6-0.6l3.7,0.1
				c0.3,0,0.6,0.3,0.6,0.6v2.4c0,0.3-0.3,0.6-0.6,0.6l-3.7-0.1c-0.3,0-0.6-0.3-0.6-0.6V171.2z M98.8,179.7h-3.7
				c-0.3,0-0.6-0.3-0.6-0.6v-2.4c0-0.3,0.3-0.6,0.6-0.6h3.7c0.3,0,0.6,0.3,0.6,0.6v2.4C99.4,179.4,99.2,179.7,98.8,179.7z"/>
		</g>
	</g>
	<g class="st2">
		<g>
			<path class="st0" d="M109.5,139.5h-6.4c0,0-0.7,4.7-0.7,13.1c0,8.4,1.2,17.8,1.2,17.8h6.6c0,0,0-7.5,0-16.1
				C110.3,145.7,109.5,139.5,109.5,139.5z M104.7,154.3h3.7c0.3,0,0.6,0.3,0.6,0.6v2.4c0,0.3-0.3,0.6-0.6,0.6h-3.7
				c-0.3,0-0.6-0.3-0.6-0.6v-2.4C104.2,154.6,104.4,154.3,104.7,154.3z M108.6,168.1h-3.7c-0.3,0-0.6-0.3-0.6-0.6v-2.4
				c0-0.3,0.3-0.6,0.6-0.6h3.7c0.3,0,0.6,0.3,0.6,0.6v2.4C109.1,167.8,108.9,168.1,108.6,168.1z M109.1,162.4c0,0.3-0.3,0.6-0.6,0.6
				l-3.7-0.1c-0.3,0-0.6-0.3-0.6-0.6v-2.4c0-0.3,0.3-0.6,0.6-0.6l3.7,0.1c0.3,0,0.6,0.3,0.6,0.6V162.4z"/>
		</g>
	</g>
	<g>
		<g>
			<g>
				<path class="st0" d="M6.2,175.3c-0.1,0.1-0.2,0.1-0.3,0.2c0.2,0.9,0.4,1.8,0.7,2.7c2.4,6.3,6.3,11.4,11.4,15.7
					c2.6,2.2,5.2,4.4,7.8,6.7c0.9,0.8,1.6,1.7,2.4,2.6c0.2,0.2,0.5,0.3,0.7,0.4c0.1-0.3,0.3-0.5,0.2-0.8c-0.1-0.8-0.3-1.6-0.5-2.4
					c-1-4.5-0.8-9-0.5-13.5c0.3-5.9-0.4-11.6-2.5-17.2c-0.1-0.2-0.4-0.4-0.5-0.7c-0.2,0.2-0.4,0.4-0.5,0.6
					c-2.1,4.6-2.7,9.5-2.2,14.5c0.1,1.7,0.4,3.5,0.5,5.2c0,0.1-0.1,0.3-0.1,0.6C17.7,184.3,12.9,178.7,6.2,175.3z"/>
			</g>
		</g>
		<g>
			<g>
				<path class="st0" d="M31.4,200.7c0.7,3.3,1.8,6.4,2.7,9.7c-6.6-4.3-12.9-9-21-10.4c0.2,1.3,1,2.1,1.6,2.9
					c4.3,5.7,10.2,9.2,16.4,12.2c4.3,2.1,8.5,4.4,12.7,6.6c0.4,0.2,0.8,0.1,1.3,0.2c-0.1-0.4-0.1-0.9-0.4-1.2
					c-2.5-2.6-3.8-5.8-4.7-9.2c-1.1-4.2-2-8.6-3.5-12.6c-1.1-3-3.2-5.6-4.8-8.4c0-0.1-0.2-0.1-0.5-0.2
					C31,193.9,30.7,197.3,31.4,200.7z"/>
			</g>
		</g>
		<g>
			<g>
				<path class="st0" d="M17.1,168.1c-0.1,0-0.2,0-0.3,0.1c-0.3-0.7-0.6-1.5-1-2.2c-2.4-5.2-5.5-9.9-10.4-13
					c-0.3-0.2-0.8-0.3-1.2-0.4c0,0.4,0,0.8,0,1.1c0.8,5.1,3.1,9.6,5.9,14c3,4.8,5.8,9.7,8.8,14.6c0.2,0.3,0.5,0.5,0.8,0.7
					c0.2-0.4,0.6-0.7,0.6-1.1c0.1-1.4,0.2-2.7,0.2-4.1c-0.1-3.8,1.3-7.3,2.5-10.8c1.5-4.3,2.7-8.6,2.6-13.1c0-1.4-0.2-2.7-0.3-4.1
					c-0.1,0-0.2,0-0.3,0C19.9,154.7,18.2,161.3,17.1,168.1z"/>
			</g>
		</g>
		<g>
			<g>
				<path class="st0" d="M27.7,131.2c-3.8,3-6.4,6.8-8.3,11.1c-0.5,1.2-1,2.4-1.7,3.7c-0.6-6.9-1.9-13.6-5.6-19.6
					c-0.1,0-0.2,0-0.4,0c-0.2,0.7-0.4,1.3-0.5,2c-0.6,4-0.6,8,0.2,12c1.1,5.4,2.3,10.8,3.5,16.2c0.2,1.1,0.4,2.3,0.6,3.4
					c0.1,0.3,0.4,0.5,0.6,0.8c0.3-0.2,0.7-0.4,0.8-0.6c1.3-4.6,3.8-8.5,6.2-12.5c2.3-3.9,3.9-8,5.1-12.3c0.4-1.4,0.5-2.9,0.8-4.7
					C28.4,130.8,28,130.9,27.7,131.2z"/>
			</g>
		</g>
		<g>
			<g>
				<path class="st0" d="M23.4,125.3c0-0.9,0-1.6,0-2.3c0.3-4.1,0.3-8.3-1.2-12.2c-0.5-1.3-1.1-2.6-1.8-3.8
					c-0.1-0.2-0.4-0.4-0.6-0.4s-0.4,0.3-0.5,0.5c-1.1,3-2,6.1-1.8,9.3c0.3,4.7,0.8,9.3,1.2,14c0.1,1.8-0.1,3.7-0.1,5.6
					c0,0.3,0.1,0.7,0.2,1c0.4-0.2,0.9-0.3,1.1-0.5c2-3.9,5.5-6.3,8.8-9c3.9-3.3,7.8-6.7,10.2-11.4c0.1-0.2,0.4-0.7,0.5-1.1
					s-0.3-0.8-0.7-0.7C32.4,115.7,27.6,120.3,23.4,125.3z"/>
			</g>
		</g>
		<g>
			<g>
				<path class="st0" d="M36.9,99.3c-4.6,3.2-7.4,7.6-8.9,12.9c-0.5,2-1.1,4-1.8,6.3c0.5-0.2,1-0.2,1.2-0.4c2.5-2.4,5.1-4.7,7.3-7.3
					c2.8-3.4,4.2-7.4,4.4-11.8c0-0.2-0.1-0.3-0.1-0.8C38.2,98.5,37.5,98.8,36.9,99.3z"/>
			</g>
		</g>
	</g>
</g>
</svg>
