<?xml version="1.0" encoding="utf-8"?>
<!-- Generator: Adobe Illustrator 22.0.1, SVG Export Plug-In . SVG Version: 6.00 Build 0)  -->
<svg version="1.1" id="Layer_1" xmlns="http://www.w3.org/2000/svg" xmlns:xlink="http://www.w3.org/1999/xlink" x="0px" y="0px"
	 viewBox="0 0 267 273.5" style="enable-background:new 0 0 267 273.5;" xml:space="preserve">
<style type="text/css">
	.st0{fill:#FFFFFF;}
</style>
<g>
	<g>
		<path class="st0" d="M26,74.7c1-3.7,0.6-4.8,0.1-6.9c-0.3-2.1-0.7-5.2,2.8-13.3c0.1,0-3.4,4.1-5.7,9.7c-2.3,5.6-3.5,12.6-1,17.2
			c9-0.4,19.3-11.8,19.8-11.6C30.2,75.6,31.4,70.3,26,74.7"/>
		<path class="st0" d="M17.7,92.2c0.2-4-0.5-5-1.4-7c-0.8-2-1.8-5.1-0.1-14c0,0-2.5,4.9-3.6,11.1c-1.2,6.2-0.8,13.6,2.7,17.7
			c9.1-2.8,17-16.5,17.4-16.4C22.1,92.1,22.1,86.5,17.7,92.2"/>
		<path class="st0" d="M13,111c-0.6-4.1-1.5-4.9-2.8-6.7c-1.2-1.9-2.9-4.8-3-14.2c0-0.1-1.6,5.6-1.4,12.2c0.1,6.6,1.9,14.1,6.3,17.3
			c8.8-5.2,14-21,14.5-20.9C17.6,109.7,16.4,104.2,13,111"/>
		<path class="st0" d="M12,130.4c-1.4-4.1-2.5-4.6-4.2-6.2c-1.6-1.6-3.9-4.2-5.7-13.8c0-0.1-0.5,6.1,0.9,12.8
			c1.3,6.7,4.6,14,9.7,16.1c8-7.7,10.4-24.9,10.8-24.9C16.4,127.9,14.2,122.6,12,130.4"/>
		<path class="st0" d="M14.5,149.6c-3.9-8.2-6,0.3-13.8-18c0-0.1,0.5,6.4,3.2,13c2.6,6.6,7.3,13.2,12.9,14.1
			c3.6-5.1,4.8-12,5.6-17.8c0.7-5.8,1-10.3,0.9-10.4C18.5,145.9,15.3,141.1,14.5,149.6"/>
		<path class="st0" d="M20.3,167.9c-5.5-7.5-6.1,1.9-17.3-15.1c0-0.1,1.7,6.5,5.6,12.6c3.8,6.1,9.9,11.8,15.9,11.2
			c2.7-6.1,2.6-13.6,2.3-19.6c-0.3-6.1-0.8-10.8-0.9-10.8C23.6,163,19.5,158.9,20.3,167.9"/>
		<path class="st0" d="M29.3,184.4c-3.6-2.7-4.9-2.4-7.4-2.5c-2.4-0.2-6-0.9-13.1-8.7c0-0.1,2.9,6.3,8.1,11.6
			c5.1,5.4,12.5,9.6,18.4,7.4c1.5-7-0.1-14.5-1.4-20.7c-1.5-6.1-2.8-10.8-2.8-10.8c0,8.8-0.6,12.6-1.5,15.2
			C28.7,178.4,27.7,179.8,29.3,184.4"/>
		<path class="st0" d="M41.3,198.4c-4.3-1.9-5.6-1.2-8.1-0.7c-2.5,0.4-6.3,0.5-15.2-5.7c0-0.1,4.1,5.8,10.6,9.9
			c6.3,4.3,14.9,6.7,20.6,2.9c0-7.5-3.2-14.8-5.8-20.7c-2.7-5.8-4.9-10.3-4.9-10.3c1.6,8.9,1.8,13,1.4,15.8
			C39.6,192.5,38.7,194.1,41.3,198.4"/>
		<path class="st0" d="M56.3,209.1c-5-0.8-6.1,0.2-8.7,1.4c-2.6,1-6.5,2.2-16.9-2.1c0-0.1,5.4,5,13,7.5c7.5,2.8,17.2,3,22.4-2.4
			c-1.8-7.6-6.9-14.2-10.8-19.5c-4.1-5.2-7.1-9.2-7.2-9.2c3.4,8.7,4.5,12.8,4.7,15.8C53.2,203.5,52.6,205.4,56.3,209.1"/>
		<path class="st0" d="M74.1,215.9c-5.5,0.5-6.5,1.8-9,3.6c-2.5,1.7-6.5,3.9-18.4,2.1c-0.1-0.1,6.7,3.8,15.5,4.4
			c8.6,0.9,19.3-1.5,23.7-8.4c-4-7.2-11-12.4-16.4-16.8c-5.5-4.2-9.4-7.6-9.6-7.5c5.4,8,7.5,11.8,8.4,14.8
			C69.4,211,69.2,213.1,74.1,215.9"/>
		<path class="st0" d="M40.2,52.4c-4.7,4.1-7.5,9.4-8.2,13.9c3.9-1.2,8.2-3.8,12.5-7.6c4.3-3.7,8-8,10.5-12.2
			C50.5,46.3,44.9,48.2,40.2,52.4"/>
	</g>
	<g>
		<path class="st0" d="M240,74.7c-1-3.7-0.6-4.8-0.1-6.9c0.3-2.1,0.7-5.2-2.8-13.3c-0.1,0,3.4,4.1,5.7,9.7c2.3,5.6,3.5,12.6,1,17.2
			c-9-0.4-19.3-11.8-19.8-11.6C235.8,75.6,234.6,70.3,240,74.7"/>
		<path class="st0" d="M248.3,92.2c-0.2-4,0.5-5,1.4-7c0.8-2,1.8-5.1,0.1-14c0,0,2.5,4.9,3.6,11.1c1.2,6.2,0.8,13.6-2.7,17.7
			c-9.1-2.8-17-16.5-17.4-16.4C243.9,92.1,243.9,86.5,248.3,92.2"/>
		<path class="st0" d="M253,111c0.6-4.1,1.5-4.9,2.8-6.7c1.2-1.9,2.9-4.8,3-14.2c0-0.1,1.6,5.6,1.4,12.2c-0.1,6.6-1.9,14.1-6.3,17.3
			c-8.8-5.2-14-21-14.5-20.9C248.4,109.7,249.6,104.2,253,111"/>
		<path class="st0" d="M254,130.4c1.4-4.1,2.5-4.6,4.2-6.2c1.6-1.6,3.9-4.2,5.7-13.8c0-0.1,0.5,6.1-0.9,12.8
			c-1.3,6.7-4.6,14-9.7,16.1c-8-7.7-10.4-24.9-10.8-24.9C249.6,127.9,251.8,122.6,254,130.4"/>
		<path class="st0" d="M251.5,149.6c3.9-8.2,6,0.3,13.8-18c0-0.1-0.5,6.4-3.2,13c-2.6,6.6-7.3,13.2-12.9,14.1
			c-3.6-5.1-4.8-12-5.6-17.8c-0.7-5.8-1-10.3-0.9-10.4C247.5,145.9,250.7,141.1,251.5,149.6"/>
		<path class="st0" d="M245.7,167.9c5.5-7.5,6.1,1.9,17.3-15.1c0-0.1-1.7,6.5-5.6,12.6c-3.8,6.1-9.9,11.8-15.9,11.2
			c-2.7-6.1-2.6-13.6-2.3-19.6c0.3-6.1,0.8-10.8,0.9-10.8C242.4,163,246.5,158.9,245.7,167.9"/>
		<path class="st0" d="M236.7,184.4c3.6-2.7,4.9-2.4,7.4-2.5c2.4-0.2,6-0.9,13.1-8.7c0-0.1-2.9,6.3-8.1,11.6
			c-5.1,5.4-12.5,9.6-18.4,7.4c-1.5-7,0.1-14.5,1.4-20.7c1.5-6.1,2.8-10.8,2.8-10.8c0,8.8,0.6,12.6,1.5,15.2
			C237.3,178.4,238.3,179.8,236.7,184.4"/>
		<path class="st0" d="M224.7,198.4c4.3-1.9,5.6-1.2,8.1-0.7c2.5,0.4,6.3,0.5,15.2-5.7c0-0.1-4.1,5.8-10.6,9.9
			c-6.3,4.3-14.9,6.7-20.6,2.9c0-7.5,3.2-14.8,5.8-20.7c2.7-5.8,4.9-10.3,4.9-10.3c-1.6,8.9-1.8,13-1.4,15.8
			C226.4,192.5,227.3,194.1,224.7,198.4"/>
		<path class="st0" d="M209.7,209.1c5-0.8,6.1,0.2,8.7,1.4c2.6,1,6.5,2.2,16.9-2.1c0-0.1-5.4,5-13,7.5c-7.5,2.8-17.2,3-22.4-2.4
			c1.8-7.6,6.9-14.2,10.8-19.5c4.1-5.2,7.1-9.2,7.2-9.2c-3.4,8.7-4.5,12.8-4.7,15.8C212.8,203.5,213.4,205.4,209.7,209.1"/>
		<path class="st0" d="M191.9,215.9c5.5,0.5,6.5,1.8,9,3.6c2.5,1.7,6.5,3.9,18.4,2.1c0.1-0.1-6.7,3.8-15.5,4.4
			c-8.6,0.9-19.3-1.5-23.7-8.4c4-7.2,11-12.4,16.4-16.8c5.5-4.2,9.4-7.6,9.6-7.5c-5.4,8-7.5,11.8-8.4,14.8
			C196.6,211,196.8,213.1,191.9,215.9"/>
		<path class="st0" d="M225.8,52.4c4.7,4.1,7.5,9.4,8.2,13.9c-3.9-1.2-8.2-3.8-12.5-7.6c-4.3-3.7-8-8-10.5-12.2
			C215.5,46.3,221.1,48.2,225.8,52.4"/>
	</g>
	<g>
		<path class="st0" d="M67.9,147.5h-8.1c-0.1,0-0.2,0-0.2,0.1c-0.1,0.1-0.1,0.2-0.1,0.3v11.8c0,0.2,0.1,0.3,0.3,0.4h2.6
			c0.3,0,0.4-0.1,0.4-0.4v-3.9h3.8c0.1,0,0.2,0,0.3-0.1c0.1-0.1,0.1-0.2,0.1-0.3v-2c0-0.1,0-0.2-0.1-0.3c-0.1-0.1-0.2-0.1-0.3-0.1
			h-3.8v-2.6h5.1c0.1,0,0.2,0,0.3-0.1c0.1-0.1,0.1-0.2,0.1-0.3v-2.1c0-0.1,0-0.2-0.1-0.3C68.1,147.6,68,147.5,67.9,147.5z"/>
		<path class="st0" d="M74.7,147.5h-2.5c-0.1,0-0.2,0-0.3,0.1c-0.1,0.1-0.1,0.2-0.1,0.3v11.8c0,0.3,0.1,0.4,0.4,0.4h2.5
			c0.3,0,0.4-0.1,0.4-0.4v-11.8c0-0.1,0-0.2-0.1-0.3C74.8,147.6,74.7,147.5,74.7,147.5z"/>
		<path class="st0" d="M86.9,157.1h-4.7v-9.2c0-0.1,0-0.2-0.1-0.3c-0.1-0.1-0.2-0.1-0.3-0.1h-2.5c-0.1,0-0.2,0-0.3,0.1
			c-0.1,0.1-0.1,0.2-0.1,0.3v11.8c0,0.3,0.1,0.4,0.4,0.4h7.6c0.1,0,0.2,0,0.3-0.1c0.1-0.1,0.1-0.2,0.1-0.3v-2.2c0-0.1,0-0.2-0.1-0.3
			C87,157.1,87,157.1,86.9,157.1z"/>
		<path class="st0" d="M103.4,147.9c0-0.1-0.1-0.2-0.1-0.3c-0.1-0.1-0.2-0.1-0.3-0.1h-2.9c-0.2,0-0.4,0.1-0.4,0.3l-2.3,7.7l-2.3-7.7
			c-0.1-0.2-0.2-0.3-0.4-0.3h-2.9c-0.1,0-0.2,0-0.3,0.1c-0.1,0.1-0.1,0.2-0.1,0.3l-1.2,11.8c0,0.3,0.1,0.4,0.4,0.4h2.4
			c0.3,0,0.4-0.1,0.4-0.4l0.7-6.5l1.9,6.6c0,0.1,0,0.1,0.1,0.2c0.1,0.1,0.1,0.1,0.2,0.1h2.2c0.1,0,0.1,0,0.2-0.1
			c0.1-0.1,0.1-0.1,0.1-0.2l1.9-6.6l0.7,6.5c0,0.3,0.1,0.4,0.4,0.4h2.4c0.2,0,0.4-0.1,0.4-0.3v0c-0.2-2-0.4-3.9-0.6-5.9
			C103.8,151.9,103.6,149.9,103.4,147.9z"/>
		<path class="st0" d="M123.5,147.5h-8.1c-0.1,0-0.2,0-0.2,0.1c-0.1,0.1-0.1,0.2-0.1,0.3v11.8c0,0.2,0.1,0.3,0.3,0.4h2.6
			c0.3,0,0.4-0.1,0.4-0.4v-3.9h3.8c0.1,0,0.2,0,0.3-0.1c0.1-0.1,0.1-0.2,0.1-0.3v-2c0-0.1,0-0.2-0.1-0.3c-0.1-0.1-0.2-0.1-0.3-0.1
			h-3.8v-2.6h5.1c0.1,0,0.2,0,0.3-0.1c0.1-0.1,0.1-0.2,0.1-0.3v-2.1c0-0.1,0-0.2-0.1-0.3C123.8,147.6,123.7,147.5,123.5,147.5z"/>
		<path class="st0" d="M136.4,157.2h-5.7V155h4.2c0.1,0,0.2,0,0.3-0.1c0.1-0.1,0.1-0.1,0.1-0.2v-1.8c0-0.1,0-0.2-0.1-0.3
			c-0.1-0.1-0.2-0.1-0.3-0.1h-4.2v-2.1h5.5c0.1,0,0.2,0,0.3-0.1c0.1-0.1,0.1-0.2,0.1-0.3v-2.1c0-0.1,0-0.2-0.1-0.3
			c-0.1-0.1-0.2-0.1-0.3-0.1h-8.4c-0.1,0-0.2,0-0.3,0.1c-0.1,0.1-0.1,0.2-0.1,0.3v11.8c0,0.1,0,0.2,0.1,0.3c0.1,0.1,0.2,0.1,0.3,0.1
			h8.5c0.2,0,0.3-0.1,0.3-0.2c0,0,0.1-0.1,0.1-0.2v-2.1C136.8,157.3,136.7,157.2,136.4,157.2z"/>
		<path class="st0" d="M148.2,153.6c-0.4-0.3-0.8-0.5-1.3-0.8c-0.5-0.2-1.1-0.4-1.7-0.6c-0.3-0.1-0.6-0.2-0.8-0.3
			c-0.2-0.1-0.4-0.2-0.6-0.3c-0.2-0.1-0.3-0.2-0.4-0.3c-0.1-0.1-0.1-0.3-0.1-0.4c0-0.2,0-0.3,0.1-0.4c0.1-0.1,0.2-0.2,0.3-0.3
			c0.1-0.1,0.3-0.1,0.4-0.1c0.2,0,0.3,0,0.5,0c0.2,0,0.4,0,0.5,0.1c0.2,0.1,0.3,0.1,0.5,0.2c0.2,0.1,0.3,0.2,0.4,0.3
			c0.1,0.1,0.3,0.2,0.4,0.3l0.1,0.1c0.1,0.1,0.2,0.1,0.2,0.2c0.1,0,0.1,0.1,0.2,0.1c0.1,0,0.2,0,0.3-0.1l1.3-1.4
			c0.1-0.1,0.1-0.1,0.2-0.2c0-0.1,0.1-0.1,0.1-0.2c0-0.1,0-0.2-0.1-0.3c-0.1-0.1-0.2-0.2-0.3-0.3c-0.1-0.1-0.3-0.2-0.5-0.4
			c-0.2-0.1-0.4-0.2-0.5-0.4c-0.5-0.3-0.9-0.4-1.4-0.6c-0.5-0.1-1-0.2-1.5-0.2c-0.7,0-1.3,0.1-1.9,0.3c-0.6,0.2-1,0.4-1.4,0.7
			c-0.4,0.3-0.7,0.7-0.9,1.1c-0.2,0.4-0.3,0.9-0.3,1.4c0,0.5,0.1,0.9,0.3,1.3c0.2,0.4,0.4,0.8,0.8,1.1c0.3,0.3,0.8,0.6,1.3,0.9
			c0.5,0.3,1.1,0.5,1.8,0.8c0.2,0.1,0.3,0.1,0.5,0.2c0.2,0.1,0.4,0.2,0.6,0.3c0.2,0.1,0.4,0.2,0.5,0.4c0.1,0.1,0.2,0.3,0.2,0.5
			c0,0.2,0,0.3-0.1,0.4c0,0.1-0.1,0.3-0.2,0.4c-0.1,0.1-0.3,0.2-0.5,0.3c-0.2,0.1-0.4,0.1-0.7,0.1c-0.3,0-0.6-0.1-0.9-0.2
			c-0.3-0.1-0.6-0.3-0.9-0.4c-0.2-0.1-0.4-0.3-0.5-0.4c-0.1-0.1-0.3-0.2-0.4-0.3c-0.1-0.1-0.1-0.1-0.2-0.2c-0.1,0-0.1-0.1-0.2-0.1
			c-0.1,0-0.2,0-0.3,0.1l-1.5,1.4c-0.1,0.1-0.2,0.2-0.2,0.3c0,0.1,0.1,0.2,0.2,0.3c0,0,0,0,0,0c0,0,0,0,0,0c0,0,0,0,0,0c0,0,0,0,0,0
			l0,0c0.1,0.1,0.2,0.2,0.4,0.4c0.2,0.2,0.3,0.3,0.6,0.5c0.5,0.4,1.1,0.7,1.8,0.9c0.6,0.2,1.3,0.3,1.9,0.3c0.7,0,1.3-0.1,1.9-0.3
			c0.6-0.2,1.1-0.5,1.6-0.8c0.4-0.4,0.8-0.8,1-1.3c0.3-0.5,0.4-1.1,0.4-1.7c0-0.6-0.1-1.1-0.3-1.5
			C148.9,154.3,148.6,153.9,148.2,153.6z"/>
		<path class="st0" d="M161.6,147.5h-9.1c-0.1,0-0.2,0-0.3,0.1c-0.1,0.1-0.1,0.2-0.1,0.3v2.1c0,0.1,0,0.2,0.1,0.3
			c0.1,0.1,0.2,0.1,0.3,0.1h2.9v9.3c0,0.1,0,0.2,0.1,0.3c0.1,0.1,0.2,0.1,0.3,0.1h2.5c0.1,0,0.2,0,0.3-0.1c0.1-0.1,0.1-0.2,0.1-0.3
			v-9.3h2.9c0.1,0,0.2,0,0.3-0.1c0.1-0.1,0.1-0.2,0.1-0.3v-2.1c0-0.1-0.1-0.2-0.1-0.3C161.8,147.6,161.7,147.5,161.6,147.5z"/>
		<path class="st0" d="M168.4,147.5h-2.5c-0.1,0-0.2,0-0.3,0.1c-0.1,0.1-0.1,0.2-0.1,0.3v11.8c0,0.3,0.1,0.4,0.4,0.4h2.5
			c0.3,0,0.4-0.1,0.4-0.4v-11.8c0-0.1,0-0.2-0.1-0.3C168.6,147.6,168.5,147.5,168.4,147.5z"/>
		<path class="st0" d="M183.9,147.9C183.9,147.9,183.9,147.9,183.9,147.9c0-0.2,0-0.2-0.1-0.3c-0.1,0-0.1-0.1-0.3-0.1h-2.7
			c-0.2,0-0.4,0.1-0.5,0.3c-0.2,0.6-0.5,1.3-0.7,1.9c-0.2,0.6-0.4,1.3-0.6,1.9c-0.2,0.6-0.4,1.3-0.6,1.9c-0.2,0.6-0.4,1.3-0.7,1.9
			l-2.6-7.7c-0.1-0.2-0.2-0.3-0.4-0.3h-2.7c-0.2,0-0.3,0.1-0.3,0.2c0,0,0,0,0,0.1c0,0,0,0,0,0.1l4.3,11.4c0,0.1,0.1,0.2,0.1,0.3
			c0,0.1,0.1,0.2,0.2,0.3c0.1,0.1,0.2,0.2,0.3,0.2h2.1c0.1,0,0.2,0,0.2-0.1c0.1-0.1,0.1-0.1,0.2-0.2c0.1-0.1,0.1-0.2,0.1-0.3
			c0-0.1,0.1-0.2,0.1-0.3L183.9,147.9L183.9,147.9z"/>
		<path class="st0" d="M191.6,148.3l-0.2-0.5c0,0-0.1-0.1-0.1-0.2c-0.1-0.1-0.2-0.1-0.2-0.1h-2.2c0,0-0.1,0-0.1,0c0,0-0.1,0-0.1,0.1
			c0,0-0.1,0.1-0.1,0.1c0,0,0,0.1-0.1,0.1l-4.6,11.9c0,0.1,0,0.2,0,0.3c0.1,0.1,0.2,0.1,0.3,0.1h2.5c0.2,0,0.4-0.1,0.4-0.3
			c0.1-0.3,0.2-0.6,0.3-0.9c0.1-0.3,0.2-0.6,0.3-0.9h4.5c0.1,0.3,0.2,0.6,0.3,0.9c0.1,0.3,0.2,0.6,0.3,0.9c0,0.1,0.1,0.2,0.2,0.2
			c0.1,0.1,0.2,0.1,0.3,0.1h2.4c0.2,0,0.3,0,0.3-0.1c0.1-0.1,0.1-0.2,0-0.3L191.6,148.3z M188.6,155.4c0.1-0.3,0.2-0.6,0.3-0.9
			c0.1-0.3,0.2-0.7,0.3-1c0.1-0.3,0.2-0.7,0.3-1c0.1-0.3,0.2-0.6,0.3-0.9l1.3,3.9H188.6z"/>
		<path class="st0" d="M206.8,157.1h-4.7v-9.2c0-0.1,0-0.2-0.1-0.3c-0.1-0.1-0.2-0.1-0.3-0.1h-2.5c-0.1,0-0.2,0-0.3,0.1
			c-0.1,0.1-0.1,0.2-0.1,0.3v11.8c0,0.3,0.1,0.4,0.4,0.4h7.5c0.1,0,0.2,0,0.3-0.1c0.1-0.1,0.1-0.2,0.1-0.3v-2.2c0-0.1,0-0.2-0.1-0.3
			C206.9,157.1,206.9,157.1,206.8,157.1z"/>
		<path class="st0" d="M127.6,109.2c0-0.6,0.3-0.9,0.8-0.9h6.5c0.5,0,0.9-0.4,0.9-0.9V96c0-0.5-0.4-0.8-0.8-0.8h-27.7
			c-0.4,0-0.6,0.3-0.6,0.6v10.7l-2-10.5c-0.1-0.4-0.4-0.8-0.8-0.8H91.2c-0.4,0-0.7,0.4-0.8,0.8l-6.5,34.9c-0.1-0.3-0.3-0.5-0.7-0.5
			H72.2c-0.2,0-0.4-0.2-0.4-0.5V96c0-0.4-0.3-0.7-0.6-0.7H60.2c-0.5,0-0.8,0.5-0.8,0.9V143c0,0.5,0.3,0.8,0.7,0.8h22.5h0.7h10
			c0.3,0,0.8-0.3,0.8-0.7l1.2-9.5c0.1-0.4,0.3-0.6,0.6-0.6h3.5c0.3,0,0.6,0.2,0.6,0.5l1.3,9.7c0.1,0.4,0.5,0.6,0.8,0.6h10.5
			c0.7,0,1-0.7,0.9-1.4l-6.6-34.3c0.2,0.2,0.4,0.3,0.6,0.3h6.5c0.5,0,0.8,0.3,0.8,0.8v33.8c0,0.5,0.5,0.9,0.9,0.9h11
			c0.5,0,0.9-0.4,0.9-0.8V109.2z M96.8,126.4c-0.3,0-0.5-0.3-0.4-0.6l0.8-6.1c0.1-1,0.3-1.5,0.5-1.5c0.2,0,0.3,0.6,0.5,1.5l0.8,6.2
			C99,126.4,98.8,126.4,96.8,126.4z"/>
		<path class="st0" d="M148.9,95.3h-11.1c-0.3,0-0.6,0.3-0.6,0.6v46.9c0,0.5,0.4,1,0.8,1h10.8c0.5,0,0.8-0.5,0.8-0.8v-47
			C149.7,95.5,149.4,95.3,148.9,95.3z"/>
		<path class="st0" d="M167,143.8h12.1c0.5,0,0.7-0.4,0.7-0.8V96.2c0-0.5-0.3-0.9-0.8-0.9h-9.7c-0.5,0-0.8,0.4-0.8,0.8v14.4
			c0,0.6-0.2,0.8-0.4,0.8c-0.1,0-0.3-0.3-0.5-0.8L163.8,96c-0.1-0.5-0.5-0.8-0.9-0.8h-10.9c-0.4,0-0.7,0.4-0.7,0.8v46.8
			c0,0.5,0.3,0.9,0.6,0.9h9.8c0.5,0,0.8-0.4,0.8-0.8v-11.5c0-0.6,0.1-0.9,0.3-0.9c0.2,0,0.5,0.3,0.6,0.9l2.9,11.7
			C166.4,143.5,166.7,143.8,167,143.8z"/>
		<path class="st0" d="M194.7,95.1c-7.2,0-13.5,4.9-13.5,14.9v19.2c0,10,6.3,14.8,13.5,14.8c7.1,0,13.5-4.9,13.5-14.8V110
			C208.2,100,201.9,95.1,194.7,95.1z M195.8,129c0,1-0.3,1.7-1,1.7c-0.7,0-1-0.7-1-1.7v-18.8c0-0.9,0.3-1.8,1-1.8c0.7,0,1,0.9,1,1.8
			V129z"/>
		<path class="st0" d="M59.9,92.3H64c0.2,0,0.4-0.1,0.5-0.2c0.1-0.1,0.2-0.3,0.2-0.5v-8h7v8c0,0.2,0.1,0.4,0.2,0.5
			c0.1,0.1,0.3,0.2,0.5,0.2h4.1c0.2,0,0.4-0.1,0.5-0.2c0.1-0.1,0.2-0.3,0.2-0.5V72c0-0.2-0.1-0.4-0.2-0.5c-0.1-0.1-0.3-0.1-0.5-0.1
			h-4.1c-0.2,0-0.3,0.1-0.5,0.2c-0.1,0.1-0.2,0.3-0.2,0.4v6.7h-7v-6.7c0-0.2-0.1-0.3-0.2-0.4c-0.2-0.1-0.3-0.2-0.4-0.2h-4.2
			c-0.2,0-0.3,0.1-0.4,0.2c-0.1,0.1-0.2,0.3-0.2,0.4v19.7C59.3,92.1,59.5,92.3,59.9,92.3z"/>
		<path class="st0" d="M82.5,87.3c0.5,0.8,1,1.5,1.7,2.2c0.7,0.7,1.4,1.2,2.2,1.7c0.8,0.5,1.7,0.8,2.6,1.1c0.9,0.3,1.9,0.4,2.9,0.4
			c1,0,1.9-0.1,2.9-0.4c0.9-0.3,1.8-0.6,2.6-1.1c0.8-0.5,1.5-1,2.2-1.7c0.7-0.7,1.2-1.4,1.7-2.2c0.5-0.8,0.8-1.6,1.1-2.6
			c0.3-0.9,0.4-1.9,0.4-2.9c0-1-0.1-1.9-0.4-2.9c-0.3-0.9-0.6-1.8-1.1-2.6c-0.5-0.8-1-1.5-1.7-2.2c-0.7-0.7-1.4-1.2-2.2-1.7
			c-0.8-0.5-1.7-0.8-2.6-1.1c-0.9-0.3-1.9-0.4-2.9-0.4c-1,0-1.9,0.1-2.9,0.4c-0.9,0.3-1.8,0.6-2.6,1.1c-0.8,0.5-1.5,1-2.2,1.7
			c-0.7,0.7-1.2,1.4-1.7,2.2c-0.5,0.8-0.8,1.7-1.1,2.6c-0.3,0.9-0.4,1.9-0.4,2.9c0,1,0.1,1.9,0.4,2.9C81.7,85.7,82,86.5,82.5,87.3z
			 M86.9,79.7c0.3-0.7,0.6-1.3,1.1-1.8c0.5-0.5,1-0.9,1.7-1.2c0.6-0.3,1.4-0.4,2.1-0.4c0.8,0,1.5,0.1,2.1,0.4
			c0.7,0.3,1.2,0.7,1.7,1.2c0.5,0.5,0.8,1.1,1.1,1.8c0.3,0.7,0.4,1.4,0.4,2.2c0,0.8-0.1,1.5-0.4,2.2c-0.3,0.7-0.6,1.3-1.1,1.8
			c-0.5,0.5-1,0.9-1.7,1.2c-0.7,0.3-1.4,0.4-2.1,0.4c-0.8,0-1.5-0.1-2.1-0.4c-0.6-0.3-1.2-0.7-1.7-1.2c-0.5-0.5-0.8-1.1-1.1-1.8
			c-0.3-0.7-0.4-1.4-0.4-2.2C86.5,81.1,86.6,80.4,86.9,79.7z"/>
		<path class="st0" d="M108.8,90.7c0.8,0.7,1.8,1.2,2.8,1.5c1.1,0.3,2.2,0.5,3.4,0.5c1.2,0,2.3-0.1,3.4-0.4c1.1-0.3,2-0.8,2.8-1.5
			c0.8-0.7,1.5-1.6,1.9-2.7c0.5-1.1,0.7-2.5,0.7-4.1V72.1c0-0.2-0.1-0.3-0.2-0.4c-0.1-0.1-0.3-0.2-0.5-0.2h-4.1
			c-0.2,0-0.4,0.1-0.5,0.2c-0.1,0.1-0.2,0.3-0.2,0.4V84c0,0.6-0.1,1.2-0.3,1.6c-0.2,0.5-0.4,0.9-0.7,1.2c-0.3,0.3-0.7,0.6-1.1,0.7
			c-0.4,0.2-0.9,0.2-1.3,0.2c-0.5,0-0.9-0.1-1.3-0.2c-0.4-0.1-0.8-0.4-1.1-0.7c-0.3-0.3-0.6-0.7-0.8-1.2c-0.2-0.5-0.3-1.1-0.3-1.8
			V72.1c0-0.2-0.1-0.3-0.2-0.4c-0.2-0.1-0.3-0.2-0.4-0.2h-4.2c-0.2,0-0.3,0.1-0.4,0.2c-0.1,0.1-0.2,0.3-0.2,0.4v11.8
			c0,1.6,0.2,3,0.7,4.1C107.4,89.1,108,90,108.8,90.7z"/>
		<path class="st0" d="M127.4,88.9C127.4,88.9,127.4,88.9,127.4,88.9C127.4,88.9,127.5,88.9,127.4,88.9
			C127.5,88.9,127.5,88.9,127.4,88.9l0.1,0.1c0.1,0.2,0.4,0.4,0.6,0.6c0.3,0.3,0.6,0.5,0.9,0.8c0.9,0.7,1.9,1.2,2.9,1.5
			c1,0.4,2.1,0.6,3.2,0.6c1.1,0,2.2-0.2,3.2-0.5c1-0.3,1.9-0.8,2.6-1.4c0.7-0.6,1.3-1.3,1.7-2.1c0.4-0.8,0.6-1.8,0.6-2.8
			c0-1-0.2-1.8-0.5-2.5c-0.3-0.7-0.8-1.3-1.4-1.8c-0.6-0.5-1.3-0.9-2.2-1.3c-0.8-0.4-1.8-0.7-2.7-1c-0.5-0.2-1-0.3-1.4-0.5
			c-0.4-0.1-0.7-0.3-1-0.5c-0.3-0.2-0.5-0.3-0.6-0.5c-0.1-0.2-0.2-0.4-0.2-0.7c0-0.3,0.1-0.5,0.2-0.7c0.1-0.2,0.3-0.3,0.5-0.4
			c0.2-0.1,0.4-0.2,0.7-0.2c0.3-0.1,0.6-0.1,0.9-0.1c0.3,0,0.6,0,0.9,0.1c0.3,0.1,0.6,0.2,0.8,0.3c0.3,0.1,0.5,0.3,0.7,0.5
			c0.2,0.2,0.4,0.3,0.6,0.5l0.1,0.1c0.1,0.1,0.3,0.2,0.4,0.3c0.1,0.1,0.2,0.1,0.4,0.1c0.2,0,0.3-0.1,0.5-0.2l2.1-2.3
			c0.1-0.1,0.2-0.2,0.3-0.4c0.1-0.1,0.1-0.2,0.1-0.3c0-0.1-0.1-0.3-0.2-0.4c-0.1-0.2-0.3-0.3-0.5-0.5c-0.2-0.2-0.5-0.4-0.8-0.6
			c-0.3-0.2-0.6-0.4-0.9-0.6c-0.8-0.4-1.5-0.7-2.3-0.9c-0.8-0.2-1.6-0.3-2.5-0.3c-1.1,0-2.2,0.1-3.1,0.4c-0.9,0.3-1.7,0.7-2.4,1.2
			c-0.7,0.5-1.1,1.1-1.5,1.8c-0.4,0.7-0.5,1.5-0.5,2.4c0,0.8,0.1,1.6,0.4,2.2c0.3,0.7,0.7,1.3,1.3,1.8c0.6,0.6,1.3,1.1,2.1,1.5
			c0.8,0.5,1.8,0.9,2.9,1.3c0.3,0.1,0.6,0.2,0.9,0.3c0.3,0.1,0.7,0.3,1,0.5c0.3,0.2,0.6,0.4,0.8,0.6c0.2,0.2,0.3,0.5,0.3,0.8
			c0,0.3,0,0.5-0.1,0.7c-0.1,0.2-0.2,0.4-0.4,0.6c-0.2,0.2-0.4,0.3-0.8,0.4c-0.3,0.1-0.7,0.2-1.2,0.2c-0.5,0-1-0.1-1.5-0.3
			c-0.5-0.2-0.9-0.4-1.4-0.7c-0.3-0.2-0.6-0.4-0.8-0.7c-0.2-0.2-0.5-0.4-0.6-0.5c-0.1-0.1-0.2-0.2-0.3-0.3c-0.1-0.1-0.2-0.1-0.3-0.1
			c-0.1,0-0.3,0.1-0.5,0.2l-2.4,2.3c-0.2,0.2-0.3,0.4-0.3,0.5C127.1,88.4,127.2,88.6,127.4,88.9C127.4,88.8,127.4,88.9,127.4,88.9z"
			/>
		<path class="st0" d="M146.5,76.3h4.8v15.4c0,0.2,0.1,0.3,0.2,0.5c0.1,0.1,0.3,0.2,0.4,0.2h4.1c0.2,0,0.4-0.1,0.5-0.2
			c0.1-0.1,0.2-0.3,0.2-0.5V76.3h4.8c0.2,0,0.4-0.1,0.5-0.2c0.1-0.2,0.2-0.3,0.2-0.5v-3.5c0-0.2-0.1-0.4-0.2-0.5
			c-0.1-0.1-0.3-0.2-0.4-0.2h-15.1c-0.2,0-0.3,0.1-0.5,0.2c-0.1,0.1-0.2,0.3-0.2,0.4v3.5c0,0.2,0.1,0.4,0.2,0.5
			C146.1,76.2,146.3,76.3,146.5,76.3z"/>
		<path class="st0" d="M165,87.3c0.5,0.8,1,1.5,1.7,2.2c0.7,0.7,1.4,1.2,2.2,1.7c0.8,0.5,1.6,0.8,2.6,1.1c0.9,0.3,1.9,0.4,2.9,0.4
			c1,0,1.9-0.1,2.9-0.4c0.9-0.3,1.8-0.6,2.6-1.1c0.8-0.5,1.5-1,2.2-1.7c0.7-0.7,1.2-1.4,1.7-2.2c0.5-0.8,0.8-1.6,1.1-2.6
			c0.3-0.9,0.4-1.9,0.4-2.9c0-1-0.1-1.9-0.4-2.9c-0.3-0.9-0.6-1.8-1.1-2.6c-0.5-0.8-1-1.5-1.7-2.2c-0.7-0.7-1.4-1.2-2.2-1.7
			c-0.8-0.5-1.7-0.8-2.6-1.1c-0.9-0.3-1.9-0.4-2.9-0.4c-1,0-1.9,0.1-2.9,0.4c-0.9,0.3-1.8,0.6-2.6,1.1c-0.8,0.5-1.5,1-2.2,1.7
			c-0.7,0.7-1.2,1.4-1.7,2.2c-0.5,0.8-0.8,1.7-1.1,2.6c-0.3,0.9-0.4,1.9-0.4,2.9c0,1,0.1,1.9,0.4,2.9
			C164.1,85.7,164.5,86.5,165,87.3z M169.3,79.7c0.3-0.7,0.6-1.3,1.1-1.8c0.5-0.5,1-0.9,1.7-1.2c0.6-0.3,1.4-0.4,2.1-0.4
			c0.8,0,1.5,0.1,2.1,0.4c0.6,0.3,1.2,0.7,1.7,1.2c0.5,0.5,0.8,1.1,1.1,1.8c0.3,0.7,0.4,1.4,0.4,2.2c0,0.8-0.1,1.5-0.4,2.2
			c-0.3,0.7-0.6,1.3-1.1,1.8c-0.5,0.5-1,0.9-1.7,1.2c-0.7,0.3-1.4,0.4-2.1,0.4c-0.8,0-1.5-0.1-2.1-0.4c-0.6-0.3-1.2-0.7-1.7-1.2
			c-0.5-0.5-0.8-1.1-1.1-1.8c-0.3-0.7-0.4-1.4-0.4-2.2C168.9,81.1,169.1,80.4,169.3,79.7z"/>
		<path class="st0" d="M189.4,92.3h4c0.2,0,0.4-0.1,0.5-0.2c0.1-0.1,0.1-0.3,0.1-0.5V79.6c1.3,2.1,2.5,4.1,3.7,6.1
			c1.2,2,2.4,4,3.7,6.1c0.1,0.1,0.2,0.3,0.3,0.3c0.1,0.1,0.2,0.1,0.3,0.1h4.5c0.2,0,0.4,0,0.5-0.1c0.1-0.1,0.2-0.2,0.2-0.4V72.1
			c0-0.2-0.1-0.3-0.2-0.5c-0.1-0.1-0.3-0.2-0.5-0.2h-4c-0.2,0-0.3,0-0.4,0.1c-0.1,0.1-0.2,0.2-0.2,0.4v11.2
			c-1.2-1.9-2.4-3.8-3.6-5.7c-1.2-1.9-2.3-3.8-3.5-5.7c-0.1-0.2-0.2-0.3-0.4-0.3c-0.1-0.1-0.3-0.1-0.4-0.1h-4.6
			c-0.2,0-0.4,0.1-0.5,0.2c-0.1,0.1-0.2,0.3-0.2,0.4v19.6c0,0.2,0,0.3,0.1,0.4C189,92.2,189.2,92.3,189.4,92.3z"/>
	</g>
	<g>
		<polygon class="st0" points="59.6,172.2 59.6,170.4 206.9,170.4 206.9,172.2 59.6,172.2 		"/>
	</g>
	<g>
		<path class="st0" d="M109.6,208.2c0-2.2,0.6-3.8,1.7-4.9c1-1,2.3-1.5,4-1.5c1.5,0,2.8,0.6,3.8,1.7c1.1,1.1,1.6,2.4,1.6,3.9
			c0,1.6-0.3,3-1,4.5c-0.4,0.8-1.3,2.2-2.6,4.1c-0.4,0.5-0.9,1.4-1.7,2.5l-0.6,0.9c-0.4,0.6-0.7,1.1-0.9,1.4
			c-0.1,0.2-0.1,0.3-0.1,0.3h6.7v3.4h-10.9v-3.1c0-0.1,0.2-0.5,0.7-1.3c0.2-0.4,0.5-0.7,0.8-1.2l0.9-1.3c0.5-0.7,1.3-1.9,2.5-3.4
			c1.1-1.5,1.8-2.8,2.4-4c0.4-1,0.6-1.9,0.6-2.7c0-0.7-0.2-1.3-0.6-1.8c-0.4-0.5-1-0.8-1.6-0.8c-1,0-1.6,0.6-2,1.7
			c-0.1,0.4-0.2,0.8-0.2,1.3v0.9h-3.4V208.2z"/>
		<path class="st0" d="M134.5,219.4c0,1.5-0.5,2.8-1.6,3.8c-1.1,1.1-2.3,1.6-3.8,1.6c-1.5,0-2.8-0.5-3.9-1.6
			c-1.1-1.1-1.6-2.3-1.6-3.8V207c0-1.5,0.5-2.8,1.6-3.9c1.1-1.1,2.3-1.6,3.8-1.6c1.5,0,2.8,0.5,3.9,1.6c1.1,1.1,1.6,2.3,1.6,3.9
			V219.4z M130.9,206.9c0-0.5-0.2-1-0.6-1.4c-0.4-0.4-0.9-0.6-1.4-0.6c-0.5,0-1,0.2-1.4,0.6c-0.4,0.4-0.6,0.9-0.6,1.4v12.4
			c0,0.5,0.2,1,0.6,1.4c0.4,0.4,0.8,0.6,1.4,0.6c0.5,0,1-0.2,1.4-0.6c0.4-0.4,0.6-0.9,0.6-1.4V206.9z"/>
		<path class="st0" d="M140.2,224.6V207h-2.9v-2.4c0.8-0.1,1.6-0.4,2.4-0.9c0.7-0.5,1.3-1.2,1.6-1.9h2.4v22.8H140.2z"/>
		<path class="st0" d="M157.7,219.4c0,1.5-0.5,2.8-1.6,3.8c-1.1,1.1-2.3,1.6-3.8,1.6H152c-1.5,0-2.8-0.5-3.8-1.6
			c-1.1-1.1-1.6-2.3-1.6-3.8v-2.1c0-1.4,0.5-2.6,1.4-3.7c0.4-0.4,0.9-0.8,1.4-1.1c-0.9-0.5-1.6-1.3-2.1-2.4
			c-0.3-0.6-0.4-1.3-0.4-2.1v-1.2c0-1.5,0.4-2.7,1.3-3.7c1-1.1,2.3-1.6,3.8-1.6h0.3c1.6,0,2.9,0.5,3.9,1.6c0.9,1,1.3,2.2,1.3,3.7
			v1.2c0,1.4-0.4,2.6-1.3,3.5c-0.4,0.4-0.8,0.7-1.3,1c1,0.6,1.8,1.4,2.4,2.6c0.3,0.6,0.4,1.3,0.4,2.2V219.4z M154.4,207.7
			c0-1.6-0.5-2.5-1.5-2.9c-0.2-0.1-0.5-0.1-0.8-0.1c-0.6,0-1.1,0.2-1.5,0.5c-0.3,0.3-0.5,0.6-0.6,1c-0.1,0.4-0.2,0.9-0.2,1.6
			c0,1,0.2,1.7,0.5,2.1c0.4,0.6,1,0.9,1.8,0.9c0.8,0,1.4-0.3,1.8-0.9C154.3,209.3,154.4,208.6,154.4,207.7z M154.3,217.8
			c0-1.4-0.3-2.3-0.9-2.7c-0.3-0.2-0.7-0.3-1.2-0.3c-0.9,0-1.5,0.4-1.9,1.2c-0.2,0.5-0.3,1.1-0.3,1.9v1.1c0,0.8,0.2,1.4,0.7,1.8
			c0.4,0.4,0.9,0.6,1.5,0.6c0.9,0,1.6-0.5,1.9-1.4c0.1-0.3,0.2-0.6,0.2-1.1V217.8z"/>
	</g>
	<g>
		<path class="st0" d="M75.1,179.2c0.9,0,1.7,0.3,2.3,1c0.6,0.6,1,1.4,1,2.3v7.5c0,0.9-0.3,1.7-1,2.3c-0.6,0.6-1.4,1-2.3,1
			c-0.9,0-1.7-0.3-2.3-1c-0.6-0.6-1-1.4-1-2.3v-7.5c0-0.9,0.3-1.7,1-2.3C73.5,179.6,74.2,179.2,75.1,179.2z M76.3,182.5
			c0-0.3-0.1-0.6-0.3-0.8c-0.2-0.2-0.5-0.3-0.8-0.3c-0.3,0-0.6,0.1-0.8,0.3s-0.4,0.5-0.4,0.8v7.5c0,0.3,0.1,0.6,0.4,0.8
			c0.2,0.2,0.5,0.3,0.8,0.3c0.3,0,0.6-0.1,0.8-0.3c0.2-0.2,0.3-0.5,0.3-0.8V182.5z"/>
		<path class="st0" d="M82.2,193.2h-2.1v-13.8H86v2.1h-3.8v3.8H85v2.1h-2.8V193.2z"/>
		<path class="st0" d="M89.3,193.2h-2.1v-13.8h5.9v2.1h-3.8v3.8h2.8v2.1h-2.8V193.2z"/>
		<path class="st0" d="M96.5,193.2h-2.1v-13.8h2.1V193.2z"/>
		<path class="st0" d="M101.5,193.3c-0.9,0-1.7-0.3-2.3-1c-0.6-0.6-1-1.4-1-2.3v-7.5c0-0.9,0.3-1.7,1-2.3c0.6-0.6,1.4-1,2.3-1
			c0.9,0,1.7,0.3,2.3,1c0.6,0.6,1,1.4,1,2.3v1.6h-2.2v-1.6c0-0.3-0.1-0.6-0.4-0.8c-0.2-0.2-0.5-0.4-0.8-0.4c-0.3,0-0.6,0.1-0.8,0.4
			c-0.2,0.2-0.3,0.5-0.3,0.8v7.5c0,0.3,0.1,0.6,0.3,0.8c0.2,0.2,0.5,0.3,0.8,0.3c0.3,0,0.6-0.1,0.8-0.3c0.2-0.2,0.4-0.5,0.4-0.8
			v-1.9h2.2v1.9c0,0.9-0.3,1.7-1,2.3C103.2,193,102.4,193.3,101.5,193.3z"/>
		<path class="st0" d="M108.4,193.2h-2.1v-13.8h2.1V193.2z"/>
		<path class="st0" d="M112.6,190l-0.5,3.2H110l2.3-13.8h2.9l2.3,13.8h-2.2l-0.5-3.2H112.6z M113.7,182.6l-0.8,5.4h1.5L113.7,182.6z
			"/>
		<path class="st0" d="M124.7,193.2h-5.7v-13.8h2.1v11.7h3.6V193.2z"/>
		<path class="st0" d="M135.4,189.7c0,1-0.2,1.8-0.7,2.5c-0.3,0.5-0.8,0.8-1.4,1c-0.3,0.1-0.7,0.2-1.2,0.2c-0.8,0-1.5-0.2-2-0.6
			c-0.4-0.3-0.8-0.8-1.1-1.3c-0.3-0.6-0.4-1.2-0.5-1.9l2-0.1c0.1,0.8,0.3,1.4,0.6,1.7c0.2,0.3,0.5,0.4,0.9,0.4
			c0.5,0,0.8-0.2,1.1-0.7c0.1-0.2,0.2-0.5,0.2-0.9c0-0.6-0.3-1.1-0.8-1.7c-0.4-0.4-1-1-1.8-1.7c-0.7-0.7-1.2-1.3-1.5-1.8
			c-0.3-0.6-0.5-1.2-0.5-1.9c0-1.3,0.4-2.2,1.3-2.8c0.5-0.4,1.2-0.6,1.9-0.6c0.7,0,1.4,0.2,1.9,0.5c0.4,0.3,0.7,0.6,1,1.1
			c0.3,0.5,0.4,1,0.5,1.6l-2,0.4c-0.1-0.6-0.2-1-0.5-1.3c-0.2-0.2-0.5-0.3-0.8-0.3c-0.4,0-0.7,0.2-0.9,0.5c-0.2,0.3-0.2,0.6-0.2,1
			c0,0.6,0.3,1.3,0.8,1.9c0.2,0.2,0.5,0.5,0.9,0.9c0.5,0.4,0.8,0.7,1,0.8c0.5,0.5,0.9,1,1.2,1.5c0.1,0.2,0.2,0.5,0.3,0.6
			C135.3,188.9,135.4,189.3,135.4,189.7z"/>
		<path class="st0" d="M136.9,193.2v-13.8h5.9v2.1H139v3.8h2.8v2.1H139v3.8h3.8v2.1H136.9z"/>
		<path class="st0" d="M149.8,193.2h-5.7v-13.8h2.1v11.7h3.6V193.2z"/>
		<path class="st0" d="M151,193.2v-13.8h5.9v2.1h-3.8v3.8h2.8v2.1h-2.8v3.8h3.8v2.1H151z"/>
		<path class="st0" d="M161.5,193.3c-0.9,0-1.7-0.3-2.3-1c-0.6-0.6-1-1.4-1-2.3v-7.5c0-0.9,0.3-1.7,1-2.3c0.6-0.6,1.4-1,2.3-1
			c0.9,0,1.7,0.3,2.3,1c0.6,0.6,1,1.4,1,2.3v1.6h-2.2v-1.6c0-0.3-0.1-0.6-0.4-0.8c-0.2-0.2-0.5-0.4-0.8-0.4c-0.3,0-0.6,0.1-0.8,0.4
			c-0.2,0.2-0.3,0.5-0.3,0.8v7.5c0,0.3,0.1,0.6,0.3,0.8c0.2,0.2,0.5,0.3,0.8,0.3c0.3,0,0.6-0.1,0.8-0.3c0.2-0.2,0.4-0.5,0.4-0.8
			v-1.9h2.2v1.9c0,0.9-0.3,1.7-1,2.3C163.2,193,162.4,193.3,161.5,193.3z"/>
		<path class="st0" d="M168.3,181.5h-2.2v-2.1h6.5v2.1h-2.2v11.7h-2.1V181.5z"/>
		<path class="st0" d="M176.1,193.2h-2.1v-13.8h2.1V193.2z"/>
		<path class="st0" d="M181.1,179.2c0.9,0,1.7,0.3,2.3,1c0.6,0.6,1,1.4,1,2.3v7.5c0,0.9-0.3,1.7-1,2.3c-0.6,0.6-1.4,1-2.3,1
			c-0.9,0-1.7-0.3-2.3-1c-0.6-0.6-1-1.4-1-2.3v-7.5c0-0.9,0.3-1.7,1-2.3C179.4,179.6,180.2,179.2,181.1,179.2z M182.2,182.5
			c0-0.3-0.1-0.6-0.3-0.8c-0.2-0.2-0.5-0.3-0.8-0.3s-0.6,0.1-0.8,0.3c-0.2,0.2-0.4,0.5-0.4,0.8v7.5c0,0.3,0.1,0.6,0.4,0.8
			c0.2,0.2,0.5,0.3,0.8,0.3s0.6-0.1,0.8-0.3c0.2-0.2,0.3-0.5,0.3-0.8V182.5z"/>
		<path class="st0" d="M188.4,179.4l2.8,9.3v-9.3h2.1v13.8H191l-2.9-8.8v8.8h-2.1v-13.8H188.4z"/>
	</g>
</g>
</svg>
