<?xml version="1.0" encoding="utf-8"?>
<!-- Generator: Adobe Illustrator 22.0.1, SVG Export Plug-In . SVG Version: 6.00 Build 0)  -->
<svg version="1.1" id="Layer_1" xmlns="http://www.w3.org/2000/svg" xmlns:xlink="http://www.w3.org/1999/xlink" x="0px" y="0px"
	 viewBox="0 0 286.6 273.5" style="enable-background:new 0 0 286.6 273.5;" xml:space="preserve">
<style type="text/css">
	.st0{fill:#FFFFFF;}
</style>
<g>
	<path class="st0" d="M52.8,235.1l-9.1,18.3h7.1l1.4-3h10.5l1.4,3h7.6l-9.6-18.3H52.8z M54.4,245.9l3-6.3l3.1,6.3H54.4z"/>
	<polygon class="st0" points="91.5,245.5 80.9,235.1 73.1,235.1 73.1,253.4 80,253.4 80,242.3 91.5,253.4 98.5,253.4 98.5,235.1 
		91.5,235.1 	"/>
	<polygon class="st0" points="100.7,240.1 108.6,240.1 108.6,253.4 115.6,253.4 115.6,240.1 123.5,240.1 123.5,235.1 100.7,235.1 	
		"/>
	<rect x="125.8" y="235.1" class="st0" width="7" height="18.3"/>
	<polygon class="st0" points="126.2,234 132.6,234 135,230.2 128.2,230.2 	"/>
	<polygon class="st0" points="135.1,240.1 143,240.1 143,253.4 150,253.4 150,240.1 157.9,240.1 157.9,235.1 135.1,235.1 	"/>
	<polygon class="st0" points="167.1,246.3 180.1,246.3 180.1,241.9 167.1,241.9 167.1,239.6 180.4,239.6 180.4,235.1 160.2,235.1 
		160.2,253.4 180.6,253.4 180.6,248.8 167.1,248.8 	"/>
	<path class="st0" d="M197.4,241.7l-3.3-0.1c-3.4-0.1-4-0.7-4-1.4v0c0-0.7,0.4-1.4,4-1.4h0.2c4,0,4.4,1.3,4.4,1.9h7.6v-0.2
		c0-2.9-2.1-5.8-11.1-5.8h-2.2c-8.5,0-10.5,2.6-10.5,5.6v0.2c0,2.8,1.9,5.3,9,5.5l3.4,0.1c3.8,0.1,4.3,0.7,4.3,1.6v0
		c0,0.9-0.6,1.7-4.5,1.7h-0.2c-4,0-4.5-1.6-4.6-2.6h-7.7v0.2c0,2.4,1.1,6.5,11.2,6.5h2.2c9.6,0,11.3-3.1,11.3-6.2v-0.3
		C207,243.5,204.3,241.9,197.4,241.7z"/>
	<rect x="209.1" y="235.1" class="st0" width="7" height="18.3"/>
	<path class="st0" d="M233.1,241.7l-3.3-0.1c-3.4-0.1-4-0.7-4-1.4v0c0-0.7,0.4-1.4,4-1.4h0.2c4,0,4.4,1.3,4.4,1.9h7.6v-0.2
		c0-2.9-2.1-5.8-11.1-5.8h-2.2c-8.5,0-10.5,2.6-10.5,5.6v0.2c0,2.8,1.9,5.3,9,5.5l3.4,0.1c3.8,0.1,4.3,0.7,4.3,1.6v0
		c0,0.9-0.6,1.7-4.5,1.7h-0.2c-4,0-4.5-1.6-4.6-2.6h-7.7v0.2c0,2.4,1.1,6.5,11.2,6.5h2.2c9.6,0,11.3-3.1,11.3-6.2v-0.3
		C242.8,243.5,240.1,241.9,233.1,241.7z"/>
	<path class="st0" d="M73.6,123c2.4,14.6,9.2,28.1,19.9,38.8c0.8,0.8,1.7,1.7,2.7,2.6v29l0.2,0.1c7.4,4.3,15.4,7.5,23.6,9.7l0.6,0.2
		v-24.5c7.3,2.5,14.9,3.8,22.6,3.8v0h0.5h0h0.5v0c7.7-0.1,15.3-1.3,22.6-3.8v24.5l0.6-0.2c8.3-2.1,16.2-5.4,23.6-9.7l0.2-0.1v-29
		c1-0.9,1.9-1.7,2.7-2.6c10.6-10.6,17.5-24.1,19.9-38.6V175l0.8-0.9c15.2-17.2,23.6-39.4,23.6-62.4v-0.3c0-23-8.4-45.2-23.6-62.4
		l-0.8-0.9v51.9c-2.4-14.6-9.2-28-19.9-38.6c-0.8-0.8-1.7-1.7-2.7-2.6v-29l-0.2-0.1c-7.4-4.3-15.4-7.6-23.6-9.7l-0.6-0.2v24.5
		c-7.3-2.5-14.9-3.8-22.6-3.8v0h-0.5h0h-0.5v0c-7.7,0.1-15.3,1.3-22.6,3.8V19.7l-0.6,0.2c-8.3,2.1-16.2,5.4-23.6,9.7l-0.2,0.1v29
		c-1,0.9-1.9,1.7-2.7,2.6C82.8,71.9,75.9,85.4,73.6,100V48L72.7,49c-15.2,17.3-23.6,39.5-23.6,62.6c0,23.1,8.4,45.3,23.6,62.6
		l0.8,0.9V123z M167.7,45.6c8.3,3,15.9,7.6,22.6,13.5v43c-1.8-9.1-6.3-17.5-13-24.2c-2.9-2.9-6.1-5.4-9.6-7.4V45.6z M167.7,152.5
		c3.5-2,6.7-4.5,9.6-7.4c6.7-6.7,11.2-15.1,13-24.2v43c-6.7,5.9-14.3,10.5-22.6,13.5V152.5z M120.6,71c7-4,15-6.1,23.1-6.1h0h0
		c8.1,0,16.1,2.1,23,6.1v26.2c-1.1-1.8-2.4-3.4-3.9-4.9c-5-5-11.6-7.8-18.7-7.9v0h-0.5h0h0h-0.5v0c-7.1,0.1-13.7,2.9-18.7,7.9
		c-1.5,1.5-2.8,3.1-3.9,4.9V71z M120.6,125.7c1.1,1.8,2.4,3.4,3.9,4.9c5,5,11.6,7.8,18.7,7.9v0h0.5h0h0h0.5v0
		c7.1-0.1,13.7-2.9,18.7-7.9c1.5-1.5,2.8-3.1,3.9-4.9V152c-7,4-15,6.1-23,6.1h0h0c-8.1,0-16.1-2.1-23.1-6.1V125.7z M97.1,59.1
		c6.7-5.9,14.3-10.5,22.6-13.5v24.9c-3.5,2.1-6.7,4.5-9.6,7.4c-6.7,6.7-11.2,15.1-13,24.2V59.1z M97.1,120.9
		c1.8,9.1,6.3,17.5,13,24.2c2.9,2.9,6.1,5.4,9.6,7.4v24.9c-8.3-3-15.9-7.6-22.6-13.5V120.9z"/>
</g>
</svg>
